SplineFontDB: 3.0
FontName: Interlecto
FullName: Interlecto
FamilyName: Interlecto
Weight: Book
Copyright: \nCreated by FontForge 20120731 at Tue Mar  3 12:44:41 2015\n By Carlos Eugenio Thompson Pinzo'n,,,\nCreated by Carlos Eugenio Thompson Pinzo'n,,, with FontForge 2.0 (http://fontforge.sf.net)\n\n  \n    image/svg+xml\n    \n  \n\n
Version: 1.0
ItalicAngle: 0
UnderlinePosition: 10
UnderlineWidth: 0
Ascent: 768
Descent: 256
sfntRevision: 0x00010000
LayerCount: 2
Layer: 0 1 "Atr+AOEA-s"  1
Layer: 1 1 "Fore"  0
XUID: [1021 452 47375164 11128597]
FSType: 8
OS2Version: 1
OS2_WeightWidthSlopeOnly: 0
OS2_UseTypoMetrics: 1
CreationTime: 1425583136
ModificationTime: 1425602307
PfmFamily: 17
TTFWeight: 400
TTFWidth: 5
LineGap: 92
VLineGap: 0
Panose: 2 0 5 3 0 0 0 0 0 0
OS2TypoAscent: 768
OS2TypoAOffset: 0
OS2TypoDescent: -256
OS2TypoDOffset: 0
OS2TypoLinegap: 92
OS2WinAscent: 771
OS2WinAOffset: 0
OS2WinDescent: 256
OS2WinDOffset: 0
HheadAscent: 768
HheadAOffset: 0
HheadDescent: -256
HheadDOffset: 0
OS2SubXSize: 324
OS2SubYSize: 716
OS2SubXOff: 0
OS2SubYOff: 143
OS2SupXSize: 324
OS2SupYSize: 716
OS2SupXOff: 0
OS2SupYOff: 491
OS2StrikeYSize: 50
OS2StrikeYPos: 264
OS2Vendor: 'PfEd'
OS2CodePages: 00000001.00000000
OS2UnicodeRanges: 00000000.00000000.00000000.00000000
DEI: 91125
ShortTable: maxp 16
  1
  0
  58
  106
  4
  0
  0
  2
  0
  10
  10
  0
  255
  0
  0
  0
EndShort
LangName: 1033 "+AAoA-Created by FontForge 20120731 at Tue Mar  3 12:44:41 2015+AAoA By Carlos Eugenio Thompson Pinz+APMA-n,,,+AAoA-Created by Carlos Eugenio Thompson Pinzo'n,,, with FontForge 2.0 (http://fontforge.sf.net)+AAoACgAA  +AAoA    image/svg+-xml+AAoA    +AAoA  +AAoACgAA" "" "Regular" "Interlecto" "" "Version 1.0" "" "" "" "" "Generated by svg2ttf from Fontello project." "http://fontello.com" 
Encoding: UnicodeBmp
UnicodeInterp: none
NameList: Adobe Glyph List
DisplaySize: -24
AntiAlias: 1
FitToEm: 1
WinInfo: 64 16 4
BeginChars: 65536 58

StartChar: a
Encoding: 97 97 1
Width: 512
Flags: W
LayerCount: 2
Fore
SplineSet
184 0 m 0,0,1
 105 0 105 0 66 41 c 0,2,3
 47 62 47 62 40 88 c 128,-1,4
 33 114 33 114 32 143 c 0,5,6
 32 164 32 164 39.5 182.5 c 128,-1,7
 47 201 47 201 59 216 c 0,8,9
 84 248 84 248 117 274 c 0,10,11
 142 294 142 294 167 310.5 c 128,-1,12
 192 327 192 327 213 340 c 1,13,14
 197 370 197 370 175 400 c 0,15,16
 159 422 159 422 143.5 434.5 c 128,-1,17
 128 447 128 447 123 448 c 0,18,19
 111 450 111 450 103 460 c 128,-1,20
 95 470 95 470 96 482 c 128,-1,21
 97 494 97 494 106 503 c 128,-1,22
 115 512 115 512 127 512 c 0,23,24
 130 512 130 512 133 512 c 0,25,26
 165 505 165 505 187 484.5 c 128,-1,27
 209 464 209 464 227 438 c 0,28,29
 242 417 242 417 257.5 391 c 128,-1,30
 273 365 273 365 287 338 c 0,31,32
 308 297 308 297 345.5 228.5 c 128,-1,33
 383 160 383 160 405 118 c 1,34,35
 422 83 422 83 433 72 c 1,36,37
 437 66 437 66 439.5 65 c 128,-1,38
 442 64 442 64 448 64 c 0,39,40
 461 64 461 64 470.5 54.5 c 128,-1,41
 480 45 480 45 480 32 c 128,-1,42
 480 19 480 19 470.5 9.5 c 128,-1,43
 461 0 461 0 448 0 c 0,44,45
 430 0 430 0 413.5 8 c 128,-1,46
 397 16 397 16 385 28 c 1,47,48
 365 51 365 51 350 85 c 1,49,50
 333 65 333 65 310 46 c 0,51,52
 285 26 285 26 253 13 c 128,-1,53
 221 0 221 0 184 0 c 0,0,1
184 64 m 0,54,55
 208 64 208 64 229.5 73 c 128,-1,56
 251 82 251 82 270 97 c 0,57,58
 285 109 285 109 297 122 c 128,-1,59
 309 135 309 135 317 147 c 1,60,-1
 243 283 l 1,61,62
 223 271 223 271 200.5 256 c 128,-1,63
 178 241 178 241 157 224 c 0,64,65
 127 200 127 200 111 178 c 0,66,67
 95.9412 157.294 95.9412 157.294 95.9412 146.332 c 0,68,69
 95.9412 145.647 95.9412 145.647 96 145 c 0,70,71
 98 99 98 99 113 84 c 0,72,73
 120 76 120 76 136.5 70 c 128,-1,74
 153 64 153 64 184 64 c 0,54,55
EndSplineSet
Validated: 524289
EndChar

StartChar: b
Encoding: 98 98 2
Width: 512
Flags: W
LayerCount: 2
Fore
SplineSet
130 768 m 0,0,1
 139 768 139 768 147 762 c 128,-1,2
 155 756 155 756 158.5 746.5 c 128,-1,3
 162 737 162 737 159.5 727.5 c 128,-1,4
 157 718 157 718 149 712 c 0,5,6
 137 701 137 701 125.5 668 c 128,-1,7
 114 635 114 635 107 587 c 128,-1,8
 100 539 100 539 98 484.5 c 128,-1,9
 96 430 96 430 96 376 c 0,10,11
 96 307 96 307 104.5 247 c 128,-1,12
 113 187 113 187 128 143.5 c 128,-1,13
 143 100 143 100 159 79 c 0,14,15
 167 70 167 70 173 66.5 c 128,-1,16
 179 63 179 63 184 64 c 1,17,18
 232 64 232 64 274 89 c 128,-1,19
 316 114 316 114 348 155.5 c 128,-1,20
 380 197 380 197 398 245.5 c 128,-1,21
 416 294 416 294 416 336 c 0,22,23
 416 362 416 362 407 380.5 c 128,-1,24
 398 399 398 399 381 413 c 128,-1,25
 364 427 364 427 340 436 c 128,-1,26
 316 445 316 445 287 448 c 1,27,28
 268 447 268 447 236.5 439 c 128,-1,29
 205 431 205 431 186 425 c 0,30,31
 173 421 173 421 161 427 c 128,-1,32
 149 433 149 433 145 445.5 c 128,-1,33
 141 458 141 458 147 470 c 128,-1,34
 153 482 153 482 166 486 c 0,35,36
 187 493 187 493 221 502 c 128,-1,37
 255 511 255 511 288 512 c 1,38,-1
 291 512 l 1,39,40
 328 508 328 508 361.5 496 c 128,-1,41
 395 484 395 484 421.5 462 c 128,-1,42
 448 440 448 440 464 407.5 c 128,-1,43
 480 375 480 375 480 336 c 0,44,45
 480 280 480 280 458.5 223 c 128,-1,46
 437 166 437 166 398 116 c 128,-1,47
 359 66 359 66 305 33.5 c 128,-1,48
 251 1 251 1 184 0 c 0,49,50
 162 0 162 0 143 11 c 128,-1,51
 124 22 124 22 110 39 c 0,52,53
 83 72 83 72 66.5 123 c 128,-1,54
 50 174 50 174 41 238.5 c 128,-1,55
 32 303 32 303 32 376 c 0,56,57
 32 431 32 431 34 487.5 c 128,-1,58
 36 544 36 544 43 596 c 128,-1,59
 50 648 50 648 63.5 690 c 128,-1,60
 77 732 77 732 107 760 c 0,61,62
 117 768 117 768 130 768 c 0,0,1
EndSplineSet
Validated: 1
EndChar

StartChar: c
Encoding: 99 99 3
Width: 475
Flags: W
LayerCount: 2
Fore
SplineSet
208 0 m 0,0,1
 180 0 180 0 151 10.5 c 128,-1,2
 122 21 122 21 95 42 c 128,-1,3
 68 63 68 63 50.5 95 c 128,-1,4
 33 127 33 127 32 168 c 1,5,6
 33 243 33 243 68.5 304.5 c 128,-1,7
 104 366 104 366 156 411 c 128,-1,8
 208 456 208 456 262.5 482 c 128,-1,9
 317 508 317 508 366 512 c 1,10,-1
 368 512 l 2,11,12
 381 512 381 512 390.5 503 c 128,-1,13
 400 494 400 494 400.5 481 c 128,-1,14
 401 468 401 468 392 458.5 c 128,-1,15
 383 449 383 449 370 448 c 0,16,17
 339 445 339 445 291 423 c 128,-1,18
 243 401 243 401 198 362.5 c 128,-1,19
 153 324 153 324 125 274.5 c 128,-1,20
 97 225 97 225 96 168 c 0,21,22
 96 143 96 143 106.5 124.5 c 128,-1,23
 117 106 117 106 135 92 c 128,-1,24
 153 78 153 78 173 71 c 128,-1,25
 193 64 193 64 208 64 c 0,26,27
 271 64 271 64 331 81 c 128,-1,28
 391 98 391 98 427 128 c 0,29,30
 437 137 437 137 450.5 136.5 c 128,-1,31
 464 136 464 136 473 125.5 c 128,-1,32
 482 115 482 115 480.5 101.5 c 128,-1,33
 479 88 479 88 469 80 c 0,34,35
 418 38 418 38 349 19 c 128,-1,36
 280 0 280 0 208 0 c 0,0,1
EndSplineSet
Validated: 1
EndChar

StartChar: d
Encoding: 100 100 4
Width: 512
Flags: W
LayerCount: 2
Fore
SplineSet
200 0 m 1,0,1
 122 3 122 3 77.5 48.5 c 128,-1,2
 33 94 33 94 32 152 c 1,3,4
 35 310 35 310 101 400.5 c 128,-1,5
 167 491 167 491 265 511 c 1,6,-1
 279 449 l 1,7,8
 204 434 204 434 151 363.5 c 128,-1,9
 98 293 98 293 96 152 c 0,10,11
 96 122 96 122 121 94 c 128,-1,12
 146 66 146 66 200 64 c 1,13,14
 297 67 297 67 355.5 125 c 128,-1,15
 414 183 414 183 416 256 c 1,16,17
 415 302 415 302 395.5 346.5 c 128,-1,18
 376 391 376 391 349 430 c 2,19,-1
 300 502 l 2,20,21
 289 517 289 517 280.5 532 c 128,-1,22
 272 547 272 547 272 568 c 0,23,24
 271.882 574.235 271.882 574.235 271.882 580.346 c 0,25,26
 271.882 626.176 271.882 626.176 278.5 665 c 0,27,28
 286 709 286 709 318 755 c 1,29,-1
 370 717 l 1,30,31
 344 682 344 682 339.5 651 c 0,32,33
 335.818 625.636 335.818 625.636 335.818 586.215 c 0,34,35
 335.818 577.455 335.818 577.455 336 568 c 1,36,37
 336 570 336 570 340 561 c 128,-1,38
 344 552 344 552 353 537 c 1,39,-1
 403 466 l 2,40,41
 432 424 432 424 455.5 371 c 128,-1,42
 479 318 479 318 480 256 c 1,43,44
 478 154 478 154 400.5 79 c 128,-1,45
 323 4 323 4 200 0 c 1,0,1
EndSplineSet
Validated: 524289
EndChar

StartChar: e
Encoding: 101 101 5
Width: 512
Flags: W
LayerCount: 2
Fore
SplineSet
208 0 m 0,0,1
 180 0 180 0 151 10.5 c 128,-1,2
 122 21 122 21 95 42 c 128,-1,3
 68 63 68 63 50.5 95 c 128,-1,4
 33 127 33 127 32 168 c 1,5,-1
 32 184 l 1,6,7
 38 254 38 254 72.5 311.5 c 128,-1,8
 107 369 107 369 156 411 c 0,9,10
 208 456 208 456 262.5 482 c 128,-1,11
 317 508 317 508 366 512 c 1,12,-1
 368 512 l 2,13,14
 381 512 381 512 390.5 503 c 128,-1,15
 400 494 400 494 400.5 481 c 128,-1,16
 401 468 401 468 392 458.5 c 128,-1,17
 383 449 383 449 370 448 c 0,18,19
 339 445 339 445 291 423 c 128,-1,20
 243 401 243 401 198 363 c 0,21,22
 163 333 163 333 138 296 c 128,-1,23
 113 259 113 259 102 216 c 1,24,25
 151 226 151 226 200 233 c 128,-1,26
 249 240 249 240 296 240 c 1,27,-1
 296 176 l 1,28,29
 251 176 251 176 201 168.5 c 128,-1,30
 151 161 151 161 98 150 c 1,31,32
 106 114 106 114 135 92 c 0,33,34
 153 78 153 78 173 71 c 128,-1,35
 193 64 193 64 208 64 c 0,36,37
 271 64 271 64 331 81 c 128,-1,38
 391 98 391 98 427 128 c 0,39,40
 437 137 437 137 450.5 136.5 c 128,-1,41
 464 136 464 136 473 125.5 c 128,-1,42
 482 115 482 115 480.5 101.5 c 128,-1,43
 479 88 479 88 469 80 c 0,44,45
 418 38 418 38 349 19 c 128,-1,46
 280 0 280 0 208 0 c 0,0,1
EndSplineSet
Validated: 1
EndChar

StartChar: f
Encoding: 102 102 6
Width: 400
Flags: WO
LayerCount: 2
Fore
SplineSet
64 0 m 2,0,1
 51 0 51 0 42 9 c 128,-1,2
 33 18 33 18 32 30.5 c 128,-1,3
 31 43 31 43 39.5 52.5 c 128,-1,4
 48 62 48 62 61 64 c 0,5,6
 82 66 82 66 94.5 75 c 128,-1,7
 107 84 107 84 116.5 101.5 c 128,-1,8
 126 119 126 119 132.5 143.5 c 128,-1,9
 139 168 139 168 141 198 c 128,-1,10
 143 228 143 228 143 258.25 c 128,-1,11
 143 288.5 143 288.5 141 319 c 0,12,13
 137 380 137 380 136 424 c 1,14,-1
 136 427 l 1,15,16
 135 433 135 433 136 440 c 0,17,18
 142 510 142 510 176.5 567.5 c 128,-1,19
 211 625 211 625 260 667 c 0,20,21
 312 712 312 712 366.5 738 c 128,-1,22
 421 764 421 764 470 768 c 0,23,24
 483 769 483 769 493 760.5 c 128,-1,25
 503 752 503 752 504 738.5 c 128,-1,26
 505 725 505 725 496.5 715 c 128,-1,27
 488 705 488 705 474 704 c 0,28,29
 443 701 443 701 395 679 c 128,-1,30
 347 657 347 657 302 619 c 0,31,32
 267 589 267 589 242 552 c 128,-1,33
 217 515 217 515 206 472 c 1,34,35
 255 482 255 482 304 489 c 128,-1,36
 353 496 353 496 400 496 c 0,37,38
 413 496 413 496 422.5 486.5 c 128,-1,39
 432 477 432 477 432 464 c 128,-1,40
 432 451 432 451 422.5 441.5 c 128,-1,41
 413 432 413 432 400 432 c 0,42,43
 355 432 355 432 304.5 424.5 c 128,-1,44
 254 417 254 417 200 406 c 1,45,-1
 206 309 l 2,46,47
 207.286 284.571 207.286 284.571 207.286 259.592 c 0,48,49
 207.286 226.286 207.286 226.286 205 192 c 0,50,51
 202 159 202 159 194.5 128 c 128,-1,52
 187 97 187 97 171.5 69.5 c 128,-1,53
 156 42 156 42 129.5 23 c 128,-1,54
 103 4 103 4 67 0 c 1,55,-1
 64 0 l 2,0,1
EndSplineSet
Validated: 524289
EndChar

StartChar: g
Encoding: 103 103 7
Width: 512
Flags: W
LayerCount: 2
Fore
SplineSet
368 512 m 0,0,1
 381 512 381 512 390.5 503 c 128,-1,2
 400 494 400 494 400.5 481 c 128,-1,3
 401 468 401 468 392 458.5 c 128,-1,4
 383 449 383 449 370 448 c 0,5,6
 337 445 337 445 289 426.5 c 128,-1,7
 241 408 241 408 196.5 376 c 128,-1,8
 152 344 152 344 124.5 303.5 c 128,-1,9
 97 263 97 263 96 216 c 1,10,11
 97 181 97 181 134 155 c 0,12,13
 152 142 152 142 172.5 135 c 128,-1,14
 193 128 193 128 208 128 c 0,15,16
 271 128 271 128 332 144 c 128,-1,17
 393 160 393 160 429 186 c 0,18,19
 438 192 438 192 449 191.5 c 128,-1,20
 460 191 460 191 468.5 184 c 128,-1,21
 477 177 477 177 479 166.5 c 128,-1,22
 481 156 481 156 477 146 c 0,23,24
 467 124 467 124 466 91 c 2,25,-1
 464 21 l 2,26,27
 464 2 464 2 460 -16 c 128,-1,28
 456 -34 456 -34 445 -51 c 128,-1,29
 434 -68 434 -68 413.5 -78 c 128,-1,30
 393 -88 393 -88 368 -88 c 0,31,32
 335 -88 335 -88 304 -83 c 128,-1,33
 273 -78 273 -78 248 -71 c 0,34,35
 235 -68 235 -68 228 -56.5 c 128,-1,36
 221 -45 221 -45 224 -32 c 128,-1,37
 227 -19 227 -19 239 -12.5 c 128,-1,38
 251 -6 251 -6 264 -9 c 0,39,40
 287 -15 287 -15 314 -19.5 c 128,-1,41
 341 -24 341 -24 368 -24 c 0,42,43
 382 -24 382 -24 386 -22 c 128,-1,44
 390 -20 390 -20 392 -16 c 0,45,46
 398 -7 398 -7 400 23 c 0,47,48
 400.667 33.6667 400.667 33.6667 400.667 45.8889 c 0,49,50
 400.667 52 400.667 52 400.5 58.5 c 128,-1,51
 400.333 65 400.333 65 400.333 71.6667 c 0,52,53
 400.333 85 400.333 85 401 99 c 1,54,55
 357 81 357 81 307.5 72.5 c 128,-1,56
 258 64 258 64 208 64 c 0,57,58
 180 64 180 64 151 74 c 128,-1,59
 122 84 122 84 96 103 c 128,-1,60
 70 122 70 122 51 150.5 c 128,-1,61
 32 179 32 179 32 216 c 1,62,63
 34 272 34 272 69.5 330 c 128,-1,64
 105 388 105 388 158 428 c 1,65,66
 210 465 210 465 264.5 486.5 c 128,-1,67
 319 508 319 508 366 512 c 0,68,69
 367 512 367 512 368 512 c 0,0,1
EndSplineSet
Validated: 524289
EndChar

StartChar: h
Encoding: 104 104 8
Width: 512
Flags: W
LayerCount: 2
Fore
SplineSet
409 0 m 0,0,1
 393 -1 393 -1 383 11.5 c 128,-1,2
 373 24 373 24 377 40 c 0,3,4
 389 89 389 89 402 176.5 c 128,-1,5
 415 264 415 264 416 336 c 0,6,7
 416 378 416 378 406 399.5 c 128,-1,8
 396 421 396 421 382 430.5 c 128,-1,9
 368 440 368 440 350 444 c 128,-1,10
 332 448 332 448 314 448 c 1,11,12
 305 447 305 447 291 438 c 128,-1,13
 277 429 277 429 259.5 410.5 c 128,-1,14
 242 392 242 392 224 365.5 c 128,-1,15
 206 339 206 339 189 307 c 0,16,17
 155 242 155 242 130 168 c 128,-1,18
 105 94 105 94 96 28 c 0,19,20
 94 15 94 15 84 7.5 c 128,-1,21
 74 0 74 0 61.5 0.5 c 128,-1,22
 49 1 49 1 40.5 10 c 128,-1,23
 32 19 32 19 32 32 c 0,24,25
 32 212 32 212 36.5 340 c 128,-1,26
 41 468 41 468 49 552 c 128,-1,27
 57 636 57 636 70 685 c 0,28,29
 76 709 76 709 84 727.5 c 128,-1,30
 92 746 92 746 105 759 c 0,31,32
 115 768 115 768 128 768 c 128,-1,33
 141 768 141 768 150.5 758.5 c 128,-1,34
 160 749 160 749 160 736 c 128,-1,35
 160 723 160 723 151 713 c 0,36,37
 149 712 149 712 143.5 700.5 c 128,-1,38
 138 689 138 689 132 669 c 0,39,40
 121 627 121 627 113 546 c 0,41,42
 102 443 102 443 98 265 c 1,43,44
 114 303 114 303 133 337 c 0,45,46
 170 407 170 407 213 454 c 0,47,48
 234 478 234 478 257.5 493.5 c 128,-1,49
 281 509 281 509 309 512 c 1,50,-1
 312 512 l 1,51,52
 315.429 512.143 315.429 512.143 318.949 512.143 c 0,53,54
 340.071 512.143 340.071 512.143 364.5 507 c 0,55,56
 393 501 393 501 420 481.5 c 128,-1,57
 447 462 447 462 463.5 425.5 c 128,-1,58
 480 389 480 389 480 336 c 0,59,60
 479 256 479 256 466 167.5 c 128,-1,61
 453 79 453 79 439 24 c 0,62,63
 436 14 436 14 428 7 c 128,-1,64
 420 0 420 0 409 0 c 0,0,1
EndSplineSet
Validated: 524289
EndChar

StartChar: i
Encoding: 105 105 9
Width: 240
Flags: W
LayerCount: 2
Fore
SplineSet
64 0 m 0,0,1
 51 0 51 0 42 9 c 128,-1,2
 33 18 33 18 32.5 31 c 128,-1,3
 32 44 32 44 40.5 53.5 c 128,-1,4
 49 63 49 63 62 64 c 1,5,6
 62 64 62 64 64.5 66.5 c 128,-1,7
 67 69 67 69 72 76 c 0,8,9
 86 97 86 97 100 150 c 0,10,11
 125 242 125 242 134 425 c 1,12,13
 102.182 415.909 102.182 415.909 70.3636 415.909 c 0,14,-1
 64 416 l 0,15,16
 51 416 51 416 41.5 425.5 c 128,-1,17
 32 435 32 435 32 448 c 128,-1,18
 32 461 32 461 41.5 470.5 c 128,-1,19
 51 480 51 480 64 480 c 0,20,21
 91 480 91 480 112.5 486 c 128,-1,22
 134 492 134 492 145 503 c 0,23,24
 152 509 152 509 162 511 c 128,-1,25
 172 513 172 513 181 509 c 128,-1,26
 190 505 190 505 195 497 c 128,-1,27
 200 489 200 489 200 479 c 0,28,29
 193 250 193 250 162 134 c 0,30,31
 147 76 147 76 127 42 c 0,32,33
 116 25 116 25 100.5 13 c 128,-1,34
 85 1 85 1 64 0 c 0,0,1
176 560 m 0,35,36
 171 560 171 560 168 561 c 1,37,38
 157 558 157 558 147 562.5 c 128,-1,39
 137 567 137 567 132 576.5 c 128,-1,40
 127 586 127 586 128.5 596.5 c 128,-1,41
 130 607 130 607 137 615 c 0,42,43
 143 621 143 621 150.5 625.5 c 128,-1,44
 158 630 158 630 171 630 c 0,45,46
 178 630 178 630 185.5 627 c 128,-1,47
 193 624 193 624 199 618 c 1,48,49
 209 604 209 604 208.5 591.5 c 128,-1,50
 208 579 208 579 198.5 569.5 c 128,-1,51
 189 560 189 560 176 560 c 0,35,36
EndSplineSet
Validated: 524289
EndChar

StartChar: j
Encoding: 106 106 10
Width: 240
Flags: W
LayerCount: 2
Fore
SplineSet
128 -88 m 0,0,1
 114 -88 114 -88 103.5 -85 c 128,-1,2
 93 -82 93 -82 84 -78 c 1,3,-1
 69 -74 l 2,4,5
 62 -72 62 -72 64 -72 c 1,6,7
 51 -72 51 -72 41.5 -62.5 c 128,-1,8
 32 -53 32 -53 32 -40 c 128,-1,9
 32 -27 32 -27 41.5 -17.5 c 128,-1,10
 51 -8 51 -8 64.5 -8 c 128,-1,11
 78 -8 78 -8 87 -11 c 2,12,-1
 105 -18 l 2,13,14
 114 -21 114 -21 120 -22 c 2,15,-1
 128 -24 l 2,16,17
 131 -25 131 -25 137 -18.5 c 128,-1,18
 143 -12 143 -12 144 8 c 1,19,20
 143 69 143 69 138 190.5 c 0,21,22
 133.833 291.75 133.833 291.75 133.833 387.097 c 0,23,24
 133.833 406.167 133.833 406.167 134 425 c 1,25,26
 102.182 415.909 102.182 415.909 70.3636 415.909 c 0,27,-1
 64 416 l 0,28,29
 51 416 51 416 41.5 425.5 c 128,-1,30
 32 435 32 435 32 448 c 128,-1,31
 32 461 32 461 41.5 470.5 c 128,-1,32
 51 480 51 480 64 480 c 0,33,34
 91 480 91 480 112.5 486 c 128,-1,35
 134 492 134 492 145 503 c 0,36,37
 152 510 152 510 162 511.5 c 128,-1,38
 172 513 172 513 181 509 c 128,-1,39
 190 505 190 505 195 496.5 c 128,-1,40
 200 488 200 488 200 478 c 0,41,42
 197.727 429.364 197.727 429.364 197.727 373.289 c 0,43,44
 197.727 306 197.727 306 201 228 c 0,45,46
 207 85 207 85 208 8 c 1,47,48
 207 -33 207 -33 185 -60 c 128,-1,49
 163 -87 163 -87 128 -88 c 0,0,1
176 560 m 0,50,51
 171 560 171 560 168 561 c 1,52,53
 157 558 157 558 147 562.5 c 128,-1,54
 137 567 137 567 132 576.5 c 128,-1,55
 127 586 127 586 128.5 596.5 c 128,-1,56
 130 607 130 607 137 615 c 0,57,58
 143 621 143 621 150.5 625.5 c 128,-1,59
 158 630 158 630 171 630 c 0,60,61
 178 630 178 630 185.5 627 c 128,-1,62
 193 624 193 624 199 618 c 1,63,64
 209 604 209 604 208.5 591.5 c 128,-1,65
 208 579 208 579 198.5 569.5 c 128,-1,66
 189 560 189 560 176 560 c 0,50,51
EndSplineSet
Validated: 524289
EndChar

StartChar: k
Encoding: 107 107 11
Width: 459
Flags: WO
LayerCount: 2
Fore
SplineSet
106 773 m 0,0,1
 100 764 100 764 82 715 c 0,2,3
 74 694 74 694 72 685 c 0,4,5
 71 681 71 681 71 679 c 0,6,7
 70 674 70 674 70 673 c 0,8,9
 70 669 70 669 67 660 c 0,10,11
 66 657 66 657 64 647 c 0,12,13
 63 642 63 642 62 634 c 0,14,15
 61 625 61 625 60 623 c 0,16,17
 59 620 59 620 48 541 c 0,18,19
 44 511 44 511 44 449 c 1,20,21
 39 404 39 404 36 391 c 1,22,23
 31.7333 384.6 31.7333 384.6 31.7333 368.813 c 0,24,25
 31.7333 355 31.7333 355 35 334 c 0,26,27
 42 289 42 289 42 281 c 0,28,29
 42 272 42 272 45 260 c 128,-1,30
 48 248 48 248 48 241 c 1,31,-1
 50 229 l 1,32,-1
 62 81 l 1,33,34
 64 78 64 78 74 48 c 0,35,36
 81 28 81 28 86 19 c 1,37,38
 86 15 86 15 87 10 c 128,-1,39
 88 5 88 5 88 3 c 1,40,-1
 98 3 l 2,41,42
 118 3 118 3 118 31 c 0,43,44
 118 33 118 33 116 42 c 128,-1,45
 114 51 114 51 114 57 c 0,46,47
 113 62 113 62 117 77 c 0,48,49
 121 93 121 93 120 99 c 0,50,51
 119 109 119 109 116 114 c 0,52,53
 112 122 112 122 112 129 c 0,54,55
 111 132 111 132 111 136 c 0,56,57
 110 140 110 140 110 143 c 0,58,59
 109 149 109 149 106 156 c 0,60,61
 104 160 104 160 102 173 c 0,62,63
 101 178 101 178 109 202 c 0,64,65
 116 223 116 223 120 223 c 1,66,67
 124 208 124 208 135 190 c 0,68,69
 148 167 148 167 160 152 c 0,70,71
 176 131 176 131 184 119 c 1,72,73
 192 101 192 101 214 81 c 0,74,75
 223 73 223 73 236 60 c 0,76,77
 252 44 252 44 264 41 c 0,78,79
 268 40 268 40 283 27 c 0,80,81
 297 15 297 15 310 15 c 1,82,83
 316 5 316 5 338 5 c 0,84,85
 342 5 342 5 352 3 c 128,-1,86
 362 1 362 1 362 1 c 1,87,88
 365 1 365 1 369 8 c 0,89,90
 374 16 374 16 374 21 c 1,91,92
 359 42 359 42 333 92 c 0,93,94
 311 133 311 133 283 178 c 0,95,96
 247 234 247 234 228 247 c 0,97,98
 226 248 226 248 216 254 c 0,99,100
 208 259 208 259 199 265 c 0,101,102
 192 270 192 270 192 273 c 1,103,104
 216 322 216 322 260 349 c 0,105,106
 272 356 272 356 283 362 c 0,107,108
 302 372 302 372 312 379 c 1,109,110
 344 391 344 391 372 405 c 0,111,112
 376 407 376 407 379 408 c 0,113,114
 386 412 386 412 387 412 c 0,115,116
 390 414 390 414 395 416 c 0,117,118
 400 419 400 419 402 421 c 0,119,120
 407 426 407 426 407 426 c 0,121,122
 411 429 411 429 413 432 c 0,123,124
 413 432 413 432 416 438 c 0,125,126
 418 442 418 442 419 447 c 128,-1,127
 420 452 420 452 420 457 c 0,128,129
 420 459 420 459 424 467 c 0,130,131
 428 476 428 476 428 479 c 0,132,133
 426 500 426 500 387 500 c 0,134,135
 350 500 350 500 330 495 c 1,136,137
 138 464 138 464 130 453 c 1,138,-1
 136 465 l 1,139,140
 143 471 143 471 152 481 c 128,-1,141
 161 491 161 491 166 497 c 1,142,143
 216 583 216 583 240 751 c 0,144,145
 241 755 241 755 237 770 c 0,146,147
 235 779 235 779 234 789 c 0,148,149
 233 803 233 803 220 811 c 128,-1,150
 207 819 207 819 192 819 c 0,151,152
 185 819 185 819 181 818 c 0,153,154
 181 818 181 818 171 814 c 0,155,156
 168 813 168 813 164 811 c 0,157,158
 154 806 154 806 140 796 c 0,159,160
 128 787 128 787 116 774 c 2,161,-1
 106 773 l 1,162,-1
 106 773 l 0,0,1
EndSplineSet
Validated: 524293
EndChar

StartChar: l
Encoding: 108 108 12
Width: 216
Flags: WO
LayerCount: 2
Fore
SplineSet
108 762 m 1,0,-1
 120 774 l 1,1,2
 125 770 125 770 141 765.5 c 128,-1,3
 157 761 157 761 166.5 752.5 c 128,-1,4
 176 744 176 744 176 726 c 0,5,6
 176 709 176 709 170 686 c 0,7,8
 168 678 168 678 166 662.5 c 128,-1,9
 164 647 164 647 162 640 c 1,10,-1
 156 544 l 1,11,-1
 168 486 l 1,12,-1
 178 442 l 1,13,-1
 184 354 l 1,14,-1
 184 168 l 1,15,-1
 164 90 l 1,16,17
 162 88 162 88 153.5 69.5 c 128,-1,18
 145 51 145 51 135.5 37.5 c 128,-1,19
 126 24 126 24 118 24 c 0,20,21
 103 24 103 24 94.5 34 c 128,-1,22
 86 44 86 44 78 60.5 c 128,-1,23
 70 77 70 77 64 84 c 1,24,-1
 54 130 l 1,25,-1
 46 186 l 1,26,-1
 36 268 l 1,27,-1
 34 276 l 1,28,-1
 32 334 l 1,29,-1
 38 452 l 1,30,-1
 44 504 l 1,31,-1
 58 568 l 1,32,-1
 60 578 l 1,33,-1
 70 628 l 1,34,-1
 86 684 l 1,35,-1
 108 762 l 1,0,-1
EndSplineSet
Validated: 1
EndChar

StartChar: m
Encoding: 109 109 13
Width: 854
Flags: WO
LayerCount: 2
Fore
SplineSet
92.5 514.75 m 4,0,1
 94.5419 519.397 94.5419 519.397 98.3125 522.375 c 0,2,3
 101 526 101 526 109 525 c 1,4,5
 130 525 130 525 147 500 c 0,6,7
 160.885 479.538 160.885 479.538 160.885 463.883 c 0,8,9
 160.885 458.115 160.885 458.115 159 453 c 0,10,11
 157 447 157 447 155 436 c 0,12,13
 151.835 417.009 151.835 417.009 150 414 c 0,14,15
 143 402.522 143 402.522 143 399 c 0,16,17
 143 398 143 398 141 392 c 0,18,-1
 139 380 l 0,19,20
 138 375 138 375 139 373 c 1,21,-1
 139 341 l 1,22,23
 134 334 134 334 134 326 c 0,24,25
 134 315 134 315 141 315 c 0,26,27
 145 315 145 315 148 318 c 0,28,29
 153 323 153 323 154 325 c 0,30,31
 157 330 157 330 159 334 c 128,-1,32
 161 338 161 338 162 346 c 0,33,34
 162.903 353.224 162.903 353.224 164 358 c 0,35,36
 165 362 165 362 166 368 c 128,-1,37
 167 374 167 374 167 375 c 0,38,39
 167 404 167 404 199 416 c 0,40,41
 223 425 223 425 271 425 c 0,42,43
 316 425 316 425 331 429 c 1,44,45
 345 429 345 429 365 421 c 128,-1,46
 385 413 385 413 401 413 c 0,47,48
 404 413 404 413 410 412 c 128,-1,49
 416 411 416 411 419 411 c 0,50,51
 426 411 426 411 435 401 c 0,52,53
 443 392 443 392 452 378 c 0,54,-1
 463 361 l 0,55,56
 484 361 484 361 497 309 c 0,57,58
 498 305 498 305 500 299 c 0,59,60
 503 287 503 287 507 304 c 0,61,62
 518 349 518 349 523 353 c 1,63,64
 532 371 532 371 547 386 c 0,65,66
 561 400 561 400 588 414 c 0,67,68
 624 433 624 433 627 434 c 0,69,70
 641.849 438.95 641.849 438.95 671 453 c 1,71,72
 683 453 683 453 694 450 c 0,73,74
 704 447 704 447 712 442 c 0,75,76
 724 434 724 434 728 430 c 0,77,78
 737 421 737 421 740 417 c 128,-1,79
 743 413 743 413 752 400 c 128,-1,80
 761 387 761 387 763 385 c 0,81,82
 767 381 767 381 782 354 c 128,-1,83
 797 327 797 327 799 325 c 0,84,85
 805 319 805 319 811 294 c 0,86,87
 815 278 815 278 821 267 c 1,88,-1
 823 215 l 1,89,-1
 811 147 l 1,90,-1
 805 47 l 1,91,92
 802 43 802 43 796 30 c 128,-1,93
 790 17 790 17 783 9 c 128,-1,94
 776 1 776 1 769 1 c 0,95,96
 765 1 765 1 762 8 c 128,-1,97
 759 15 759 15 759 19 c 1,98,-1
 760 21 l 2,99,100
 761 23 761 23 761 25 c 2,101,-1
 761 35 l 2,102,103
 761 37 761 37 763 42 c 128,-1,104
 765 47 765 47 765 49 c 0,105,106
 765 75 765 75 761 101 c 0,107,108
 746 196 746 196 735 219 c 1,109,-1
 719 273 l 1,110,-1
 695 325 l 1,111,-1
 663 353 l 1,112,113
 654 359 654 359 653 359 c 0,114,115
 647 359 647 359 642 354 c 0,116,117
 635.917 347.917 635.917 347.917 631 346 c 0,118,-1
 621 334 l 0,119,120
 616 328 616 328 613 325 c 0,121,122
 604 316 604 316 599 308 c 0,123,124
 588 291 588 291 585 286 c 0,125,126
 580 276 580 276 573 265 c 0,127,128
 540 213 540 213 533 163 c 1,129,130
 522 116 522 116 503 71 c 1,131,132
 489 5 489 5 463 5 c 0,133,134
 462 5 462 5 455 6 c 128,-1,135
 448 7 448 7 445 7 c 0,136,137
 439 7 439 7 439 55 c 0,138,-1
 439 158 l 0,139,140
 439.5 183.5 439.5 183.5 439.5 198.75 c 128,-1,141
 439.5 214 439.5 214 439 219 c 0,142,143
 433.341 275.585 433.341 275.585 417 305 c 1,144,145
 390.132 363.368 390.132 363.368 346.098 363.368 c 0,146,147
 342.603 363.368 342.603 363.368 339 363 c 1,148,149
 319 363 319 363 296 349 c 128,-1,150
 273 335 273 335 246 313 c 0,151,152
 216 288 216 288 207 283 c 1,153,-1
 173 217 l 1,154,-1
 151 163 l 1,155,-1
 127 111 l 1,156,-1
 101 51 l 1,157,-1
 101 45 l 2,158,159
 101 25 101 25 84 15 c 128,-1,160
 67 5 67 5 49 5 c 0,161,162
 41 5 41 5 37 8 c 128,-1,163
 33 11 33 11 32 13 c 0,164,-1
 32 24 l 0,165,166
 33 34 33 34 33 37 c 0,167,168
 33 64 33 64 41 85 c 1,169,-1
 49 153 l 1,170,-1
 65 227 l 1,171,-1
 77 283 l 1,172,-1
 85 369 l 1,173,-1
 95 437 l 1,174,-1
 98.25 501.5 l 1,175,176
 98.0214 508.829 98.0214 508.829 96.25 509.125 c 0,177,178
 92.25 511.25 92.25 511.25 92.5 514.75 c 4,0,1
EndSplineSet
Validated: 525313
EndChar

StartChar: n
Encoding: 110 110 14
Width: 540
Flags: WO
LayerCount: 2
Fore
SplineSet
46 494 m 1,0,-1
 52 513 l 1,1,2
 59 511 59 511 60 511 c 0,3,4
 87 511 87 511 118 479 c 0,5,6
 125 472 125 472 129 462.5 c 128,-1,7
 133 453 133 453 136.5 440 c 128,-1,8
 140 427 140 427 142 421 c 1,9,10
 146 416 146 416 148.5 407 c 128,-1,11
 151 398 151 398 152 395 c 2,12,-1
 162 349 l 1,13,-1
 166 295 l 1,14,-1
 158 243 l 1,15,-1
 146 201 l 1,16,17
 169 221 169 221 224 263 c 128,-1,18
 279 305 279 305 318 340.5 c 128,-1,19
 357 376 357 376 384 415 c 0,20,21
 395 431 395 431 398 435 c 128,-1,22
 401 439 401 439 411 445 c 128,-1,23
 421 451 421 451 432 449 c 1,24,25
 457 448 457 448 476.5 435 c 128,-1,26
 496 422 496 422 504 401 c 1,27,-1
 508 291 l 1,28,-1
 504 231 l 1,29,-1
 490 135 l 2,30,31
 487 114 487 114 480 89 c 0,32,33
 478 81 478 81 477.5 62.5 c 128,-1,34
 477 44 477 44 473 32 c 128,-1,35
 469 20 469 20 458 17 c 1,36,37
 445 17 445 17 438 29.5 c 128,-1,38
 431 42 431 42 430 43 c 2,39,-1
 428 85 l 1,40,-1
 434 127 l 1,41,-1
 440 175 l 1,42,-1
 442 313 l 1,43,-1
 432 359 l 1,44,45
 421 365 421 365 420 365 c 0,46,47
 407 365 407 365 364 323 c 0,48,49
 312 273 312 273 294 249 c 1,50,51
 275 227 275 227 238.5 181 c 128,-1,52
 202 135 202 135 178.5 107.5 c 128,-1,53
 155 80 155 80 118 49.5 c 128,-1,54
 81 19 81 19 44 5 c 1,55,56
 32 5 32 5 32 7 c 0,57,58
 32 23 32 23 40 37 c 0,59,60
 43 43 43 43 49.5 60.5 c 128,-1,61
 56 78 56 78 60 83 c 1,62,63
 85 144 85 144 88 161 c 1,64,65
 93 174 93 174 108 255 c 0,66,67
 109 260 109 260 110 291 c 1,68,69
 110 332 110 332 108 355 c 0,70,71
 105 388 105 388 76 457 c 1,72,73
 71 460 71 460 64 476.5 c 128,-1,74
 57 493 57 493 50 495 c 1,75,-1
 46 494 l 1,0,-1
EndSplineSet
Validated: 1
EndChar

StartChar: o
Encoding: 111 111 15
Width: 567
Flags: WO
LayerCount: 2
Fore
SplineSet
316 399 m 0,0,1
 320 400 320 400 320 401 c 1,2,3
 320 405 320 405 328 405 c 0,4,5
 330 405 330 405 333 404 c 0,6,7
 336 404 336 404 338 404 c 2,8,-1
 362 400 l 1,9,-1
 398 386 l 1,10,-1
 420 371 l 1,11,12
 421 368 421 368 425 358 c 0,13,14
 431 344 431 344 432 341 c 0,15,16
 434 335 434 335 434 325 c 0,17,18
 436 281 436 281 406 215 c 0,19,20
 392 184 392 184 370 168 c 1,21,22
 365 161 365 161 355 152 c 0,23,24
 342 140 342 140 340 138 c 0,25,26
 311 107 311 107 272 91 c 1,27,28
 213 79 213 79 194 95 c 1,29,30
 184 101 184 101 179 108 c 0,31,32
 175 115 175 115 167 132 c 0,33,34
 160 148 160 148 158 152 c 1,35,-1
 158 167 l 2,36,37
 158 174 158 174 156 180 c 128,-1,38
 154 186 154 186 154 193 c 0,39,40
 154 194 154 194 154 202 c 0,41,42
 154 212 154 212 154 212 c 0,43,44
 154 217 154 217 153 220 c 0,45,46
 150 228 150 228 152 229 c 0,47,48
 153 230 153 230 155 241 c 0,49,50
 158 256 158 256 158 256 c 0,51,52
 159 262 159 262 162 266 c 1,53,54
 166 277 166 277 182 313 c 0,55,56
 197 346 197 346 226 359 c 1,57,58
 240 368 240 368 263 376 c 0,59,60
 289 385 289 385 296 388 c 1,61,62
 294 394 294 394 316 399 c 0,0,1
300 478 m 24,63,64
 306 478 306 478 314 476 c 0,65,66
 326 473 326 473 328 473 c 1,67,68
 389 465 389 465 420 442 c 0,69,70
 421 441 421 441 443 428 c 0,71,72
 457 420 457 420 468 411 c 0,73,74
 489 394 489 394 514 351 c 1,75,76
 544 295 544 295 532 254 c 1,77,78
 530 170 530 170 466 106 c 1,79,80
 443 81 443 81 426 71 c 1,81,82
 387 42 387 42 372 35 c 0,83,84
 367 33 367 33 357 26 c 0,85,86
 342 16 342 16 342 16 c 0,87,88
 285 -3 285 -3 280 -3 c 0,89,90
 274 -3 274 -3 265 -2 c 0,91,92
 256 0 256 0 250 0 c 2,93,-1
 246 0 l 1,94,-1
 200 12 l 1,95,-1
 134 30 l 1,96,-1
 94 48 l 1,97,98
 88 55 88 55 72 68 c 0,99,100
 51 85 51 85 45 93 c 0,101,102
 34 107 34 107 34 123 c 1,103,104
 36 131 36 131 34 146 c 0,105,106
 32 165 32 165 32 167 c 0,107,108
 34 177 34 177 34 192 c 0,109,110
 34 210 34 210 38 215 c 1,111,112
 49 238 49 238 58 254 c 0,113,114
 64 265 64 265 85 294 c 0,115,116
 103 319 103 319 111 327 c 0,117,118
 119 337 119 337 144 363 c 128,-1,119
 169 389 169 389 173 393 c 0,120,121
 195 415 195 415 207 426 c 0,122,123
 236 453 236 453 236 455 c 0,124,125
 236 462 236 462 269 471 c 0,126,127
 296 478 296 478 300 478 c 24,63,64
EndSplineSet
Validated: 41
EndChar

StartChar: p
Encoding: 112 112 16
Width: 591
Flags: W
LayerCount: 2
Fore
SplineSet
119.091 567 m 4,0,1
 126.779 575.373 126.779 575.373 132.091 567.5 c 0,2,3
 140.091 569 140.091 569 143.091 569 c 0,4,5
 150.091 568 150.091 568 154.591 566 c 128,-1,6
 159.091 564 159.091 564 164.091 558.5 c 128,-1,7
 169.091 553 169.091 553 170.091 551.5 c 128,-1,8
 171.091 550 171.091 550 177.091 541 c 1,9,10
 198.755 492.963 198.755 492.963 195.091 449 c 0,11,12
 194.091 437 194.091 437 195.591 414.5 c 128,-1,13
 197.091 392 197.091 392 197.091 383 c 0,14,15
 198.091 368 198.091 368 191.091 349 c 0,16,17
 189.737 344.939 189.737 344.939 194.755 349.593 c 0,18,19
 198.186 352.774 198.186 352.774 210.542 366.142 c 0,20,21
 281.529 442.939 281.529 442.939 311.091 447 c 1,22,23
 335.091 470 335.091 470 365.091 477 c 0,24,25
 388.091 482 388.091 482 445.591 513.5 c 128,-1,26
 503.091 545 503.091 545 527.091 545 c 1,27,28
 546.091 543 546.091 543 553.591 521.5 c 128,-1,29
 561.091 500 561.091 500 559.091 477 c 1,30,31
 560.091 457 560.091 457 554.591 425.5 c 128,-1,32
 549.091 394 549.091 394 549.091 379 c 0,33,34
 548.091 344 548.091 344 543.091 331 c 1,35,-1
 531.091 273 l 1,36,-1
 523.091 229 l 1,37,-1
 515.091 185 l 1,38,-1
 493.091 115 l 1,39,40
 490.091 110 490.091 110 480.091 93.5 c 128,-1,41
 470.091 77 470.091 77 465.091 71 c 0,42,43
 459.091 64 459.091 64 451.591 46 c 128,-1,44
 444.091 28 444.091 28 435.091 17.5 c 128,-1,45
 426.091 7 426.091 7 409.091 7 c 0,46,47
 393.091 7 393.091 7 383.591 19.5 c 128,-1,48
 374.091 32 374.091 32 375.091 49 c 1,49,50
 373.091 69 373.091 69 379.591 91.5 c 128,-1,51
 386.091 114 386.091 114 399.091 142.5 c 128,-1,52
 412.091 171 412.091 171 417.091 185 c 1,53,54
 422.091 194 422.091 194 437.091 222 c 128,-1,55
 452.091 250 452.091 250 458.591 263.5 c 128,-1,56
 465.091 277 465.091 277 471.591 300.5 c 128,-1,57
 478.091 324 478.091 324 479.091 345 c 0,58,59
 479.091 354 479.091 354 481.091 373.5 c 128,-1,60
 483.091 393 483.091 393 483.091 403 c 0,61,62
 483.091 435 483.091 435 453.091 435 c 1,63,64
 397.091 427 397.091 427 340.591 395.5 c 128,-1,65
 284.091 364 284.091 364 259.091 321 c 0,66,67
 223.091 260 223.091 260 219.091 247 c 1,68,-1
 191.091 189 l 1,69,-1
 173.091 125 l 1,70,-1
 155.091 27 l 1,71,-1
 145.091 -13 l 2,72,73
 144.091 -18 144.091 -18 141.091 -32.5 c 128,-1,74
 138.091 -47 138.091 -47 135.091 -55 c 1,75,76
 131.091 -74 131.091 -74 118.591 -108.5 c 128,-1,77
 106.091 -143 106.091 -143 103.091 -163 c 0,78,79
 92.0908 -239 92.0908 -239 63.0908 -239 c 0,80,81
 61.0908 -239 61.0908 -239 57.0908 -240 c 128,-1,82
 53.0908 -241 53.0908 -241 51.0908 -241 c 0,83,84
 47.0908 -241 47.0908 -241 45.5908 -242 c 128,-1,85
 44.0908 -243 44.0908 -243 41.0908 -243 c 1,86,87
 31.0908 -239 31.0908 -239 32.0908 -220.5 c 128,-1,88
 33.0908 -202 33.0908 -202 39.0908 -193 c 1,89,90
 43.0908 -176 43.0908 -176 57.5908 -142.5 c 128,-1,91
 72.0908 -109 72.0908 -109 75.0908 -89 c 1,92,93
 80.0908 -72 80.0908 -72 103.091 53 c 0,94,95
 112.091 100 112.091 100 113.091 105 c 2,96,-1
 119.091 167 l 1,97,-1
 125.091 233 l 1,98,-1
 129.091 437 l 1,99,-1
 127.091 503 l 1,100,101
 114.091 533 114.091 533 115.091 543 c 1,102,103
 111.591 560.5 111.591 560.5 119.091 567 c 4,0,1
EndSplineSet
Validated: 524321
EndChar

StartChar: q
Encoding: 113 113 17
Width: 536
Flags: W
LayerCount: 2
Fore
SplineSet
34.3682 466.999 m 4,0,1
 38.3711 435 l 1,2,3
 40.3711 433 40.3711 433 42.3711 428.5 c 128,-1,4
 44.3711 424 44.3711 424 47.3711 421.5 c 128,-1,5
 50.3711 419 50.3711 419 56.3711 419 c 0,6,7
 74.3711 419 74.3711 419 95.8711 435 c 128,-1,8
 117.371 451 117.371 451 146.371 467 c 128,-1,9
 175.371 483 175.371 483 210.371 483 c 0,10,11
 234.371 483 234.371 483 269.371 467.5 c 128,-1,12
 304.371 452 304.371 452 316.371 449 c 0,13,14
 342.371 443 342.371 443 356.371 407 c 1,15,-1
 356.371 315 l 1,16,-1
 348.371 251 l 1,17,-1
 338.371 209 l 1,18,-1
 320.371 175 l 1,19,20
 277.371 115 277.371 115 212.371 97 c 0,21,22
 209.371 97 209.371 97 204.371 96 c 128,-1,23
 199.371 95 199.371 95 196.371 95 c 0,24,25
 188.371 95 188.371 95 174.371 83 c 1,26,27
 179.371 83 179.371 83 187.371 82 c 128,-1,28
 195.371 81 195.371 81 200.371 81 c 128,-1,29
 205.371 81 205.371 81 214.371 78 c 128,-1,30
 223.371 75 223.371 75 228.371 75 c 0,31,32
 235.371 75 235.371 75 241.371 67.5 c 128,-1,33
 247.371 60 247.371 60 253.871 49.5 c 128,-1,34
 260.371 39 260.371 39 264.371 35 c 0,35,36
 300.923 -1.55176 300.923 -1.55176 316.371 -73 c 1,37,38
 326.371 -102 326.371 -102 352.871 -122 c 128,-1,39
 379.371 -142 379.371 -142 410.371 -139 c 1,40,41
 413.371 -137 413.371 -137 424.871 -136.5 c 128,-1,42
 436.371 -136 436.371 -136 440.371 -135 c 0,43,44
 441.371 -135 441.371 -135 447.871 -133 c 128,-1,45
 454.371 -131 454.371 -131 458.371 -131 c 0,46,47
 471.371 -131 471.371 -131 487.871 -113 c 128,-1,48
 504.371 -95 504.371 -95 504.371 -79 c 0,49,50
 504.371 -69 504.371 -69 488.371 -69 c 0,51,52
 485.371 -69 485.371 -69 480.371 -68 c 128,-1,53
 475.371 -67 475.371 -67 472.371 -67 c 0,54,55
 471.371 -67 471.371 -67 453.871 -65.5 c 128,-1,56
 436.371 -64 436.371 -64 428.371 -65 c 0,57,58
 390.371 -69 390.371 -69 371.371 -49 c 128,-1,59
 352.371 -29 352.371 -29 352.371 9 c 1,60,61
 350.371 15 350.371 15 347.871 32 c 128,-1,62
 345.371 49 345.371 49 340.871 56 c 128,-1,63
 336.371 63 336.371 63 324.371 65 c 1,64,65
 324.371 67 324.371 67 332.371 67 c 0,66,67
 334.371 67 334.371 67 339.371 68 c 128,-1,68
 344.371 69 344.371 69 346.371 69 c 0,69,70
 349.371 69 349.371 69 356.371 71 c 128,-1,71
 363.371 73 363.371 73 368.371 73 c 0,72,73
 387.371 73 387.371 73 406.871 89.5 c 128,-1,74
 426.371 106 426.371 106 446.871 132.5 c 128,-1,75
 467.371 159 467.371 159 476.371 167 c 1,76,-1
 492.371 225 l 1,77,-1
 496.371 289 l 1,78,-1
 490.371 343 l 1,79,-1
 478.371 389 l 1,80,-1
 466.371 433 l 1,81,-1
 448.371 471 l 1,82,83
 391.371 503 391.371 503 368.371 519 c 0,84,85
 328.371 546 328.371 546 284.371 547 c 1,86,87
 256.371 551 256.371 551 210.371 551 c 0,88,89
 201.371 551 201.371 551 185.371 549 c 128,-1,90
 169.371 547 169.371 547 160.371 547 c 0,91,92
 156.371 547 156.371 547 146.871 542.5 c 128,-1,93
 137.371 538 137.371 538 134.371 537 c 0,94,95
 42.9121 506.514 42.9121 506.514 32.3711 477 c 1,96,97
 31.0625 472.999 31.0625 472.999 34.3682 466.999 c 4,0,1
EndSplineSet
Validated: 524329
EndChar

StartChar: r
Encoding: 114 114 18
Width: 416
Flags: W
LayerCount: 2
Fore
SplineSet
32 513 m 1,0,1
 37 515 37 515 42 522 c 128,-1,2
 47 529 47 529 54 529 c 0,3,4
 70 529 70 529 91 509.5 c 128,-1,5
 112 490 112 490 112 475 c 0,6,7
 112 472 112 472 113 467.5 c 128,-1,8
 114 463 114 463 114 461 c 0,9,10
 114 457 114 457 118 448 c 128,-1,11
 122 439 122 439 124 439 c 1,12,13
 129 464 129 464 151 480 c 128,-1,14
 173 496 173 496 196.5 501.5 c 128,-1,15
 220 507 220 507 253.5 513.5 c 128,-1,16
 287 520 287 520 302 525 c 0,17,18
 324 532 324 532 354 510 c 128,-1,19
 384 488 384 488 384 469 c 1,20,21
 382 458 382 458 360.5 455 c 128,-1,22
 339 452 339 452 334 447 c 1,23,24
 256 431.4 256 431.4 202 417 c 0,25,26
 187 413 187 413 168.5 401 c 128,-1,27
 150 389 150 389 150 377 c 0,28,29
 150 372 150 372 148 365.5 c 128,-1,30
 146 359 146 359 146 357 c 1,31,32
 175 324 175 324 174 277 c 1,33,34
 178 252 178 252 202 217 c 128,-1,35
 226 182 226 182 230 159 c 0,36,37
 233 141 233 141 253.5 104.5 c 128,-1,38
 274 68 274 68 274 49 c 1,39,40
 257 32 257 32 242 27 c 0,41,42
 218 19 218 19 212 19 c 0,43,44
 205 19 205 19 198.5 23 c 128,-1,45
 192 27 192 27 190 30 c 128,-1,46
 188 33 188 33 182 43 c 2,47,-1
 176 53 l 2,48,49
 173 58 173 58 162.5 70.5 c 128,-1,50
 152 83 152 83 145 94 c 128,-1,51
 138 105 138 105 138 115 c 0,52,53
 138 117 138 117 137 121.5 c 128,-1,54
 136 126 136 126 136 129 c 1,55,56
 132 137 132 137 128.5 155.5 c 128,-1,57
 125 174 125 174 124 179 c 0,58,59
 120 194 120 194 120 213 c 0,60,61
 120 218 120 218 117 230.5 c 128,-1,62
 114 243 114 243 114 249 c 0,63,64
 114 251 114 251 113 256.5 c 128,-1,65
 112 262 112 262 112 265 c 0,66,67
 112 266 112 266 110 272.5 c 128,-1,68
 108 279 108 279 108 283 c 1,69,70
 107.874 288.661 107.874 288.661 100 308 c 0,71,72
 90 332.56 90 332.56 90 339 c 0,73,74
 90 340 90 340 80 361.5 c 128,-1,75
 70 383 70 383 70 393 c 1,76,77
 65 414 65 414 60 423 c 0,78,79
 55 433 55 433 38 471 c 1,80,-1
 32 513 l 1,0,1
EndSplineSet
Validated: 524321
EndChar

StartChar: s
Encoding: 115 115 19
Width: 475
Flags: W
LayerCount: 2
Fore
SplineSet
200 500 m 1,0,-1
 400 500 l 1,1,-1
 450 450 l 1,2,-1
 400 400 l 1,3,-1
 200 400 l 2,4,5
 179 400 179 400 165 386 c 128,-1,6
 151 372 151 372 151 350.5 c 128,-1,7
 151 329 151 329 165 315 c 128,-1,8
 179 301 179 301 200 300 c 1,9,-1
 300 300 l 1,10,11
 364 298 364 298 406 256 c 128,-1,12
 448 214 448 214 450 150 c 1,13,14
 448 86 448 86 406 44 c 128,-1,15
 364 2 364 2 300 0 c 1,16,-1
 200 0 l 2,17,18
 149 0 149 0 104 18.5 c 128,-1,19
 59 37 59 37 23 73 c 1,20,-1
 94 144 l 1,21,22
 138 100 138 100 200 100 c 2,23,-1
 300 100 l 1,24,25
 322 101 322 101 336 115 c 128,-1,26
 350 129 350 129 350 150.5 c 128,-1,27
 350 172 350 172 336 186 c 128,-1,28
 322 200 322 200 300 200 c 2,29,-1
 200 200 l 1,30,31
 136 202 136 202 94 244 c 128,-1,32
 52 286 52 286 50 350 c 1,33,34
 52 414 52 414 94 456 c 128,-1,35
 136 498 136 498 200 500 c 1,0,-1
EndSplineSet
Validated: 1
EndChar

StartChar: t
Encoding: 116 116 20
Width: 400
Flags: W
LayerCount: 2
Fore
SplineSet
350 0 m 1,0,1
 265 2 265 2 208.5 58.5 c 128,-1,2
 152 115 152 115 150 200 c 1,3,-1
 150 400 l 1,4,-1
 88 400 l 1,5,6
 59 458 59 458 9 500 c 1,7,-1
 50 500 l 1,8,-1
 250 700 l 1,9,-1
 250 500 l 1,10,-1
 350 500 l 1,11,-1
 350 400 l 1,12,-1
 250 400 l 1,13,-1
 250 200 l 1,14,15
 251 157 251 157 279 129 c 128,-1,16
 307 101 307 101 350 100 c 1,17,-1
 400 50 l 1,18,-1
 350 0 l 1,0,1
EndSplineSet
Validated: 1
EndChar

StartChar: u
Encoding: 117 117 21
Width: 512
Flags: W
LayerCount: 2
Fore
SplineSet
25 500 m 1,0,-1
 125 500 l 1,1,-1
 125 250 l 1,2,3
 127 186 127 186 169 144 c 128,-1,4
 211 102 211 102 275 100 c 1,5,6
 339 102 339 102 381 144 c 128,-1,7
 423 186 423 186 425 250 c 1,8,-1
 425 500 l 1,9,-1
 525 500 l 1,10,-1
 525 0 l 1,11,-1
 475 -50 l 1,12,-1
 425 0 l 1,13,-1
 425 50 l 1,14,15
 358 0 358 0 275 0 c 1,16,17
 169 3 169 3 98.5 73.5 c 128,-1,18
 28 144 28 144 25 250 c 1,19,-1
 25 500 l 1,0,-1
EndSplineSet
Validated: 1
EndChar

StartChar: v
Encoding: 118 118 22
Width: 512
Flags: W
LayerCount: 2
Fore
SplineSet
275 -21 m 1,0,-1
 25 229 l 1,1,-1
 25 500 l 1,2,-1
 75 550 l 1,3,-1
 125 500 l 1,4,-1
 125 271 l 1,5,-1
 275 121 l 1,6,-1
 425 271 l 1,7,-1
 425 500 l 1,8,-1
 525 500 l 1,9,-1
 525 229 l 1,10,-1
 275 -21 l 1,0,-1
EndSplineSet
Validated: 1
EndChar

StartChar: w
Encoding: 119 119 23
Width: 512
Flags: W
LayerCount: 2
Fore
SplineSet
225 -21 m 1,0,-1
 25 179 l 1,1,-1
 25 500 l 1,2,-1
 75 550 l 1,3,-1
 125 500 l 1,4,-1
 125 221 l 1,5,-1
 225 121 l 1,6,-1
 325 221 l 1,7,-1
 325 500 l 1,8,-1
 425 500 l 1,9,-1
 425 221 l 1,10,-1
 525 121 l 1,11,-1
 625 221 l 1,12,-1
 625 500 l 1,13,-1
 725 500 l 1,14,-1
 725 179 l 1,15,-1
 525 -21 l 1,16,-1
 375 129 l 1,17,-1
 225 -21 l 1,0,-1
EndSplineSet
Validated: 1
EndChar

StartChar: x
Encoding: 120 120 24
Width: 625
Flags: W
LayerCount: 2
Fore
SplineSet
25 500 m 1,0,-1
 96 500 l 1,1,-1
 275 321 l 1,2,-1
 454 500 l 1,3,-1
 525 500 l 1,4,-1
 525 429 l 1,5,-1
 346 250 l 1,6,-1
 558 38 l 1,7,-1
 629 109 l 1,8,-1
 629 -104 l 1,9,-1
 416 -104 l 1,10,-1
 487 -33 l 1,11,-1
 275 179 l 1,12,-1
 96 0 l 1,13,-1
 25 0 l 1,14,-1
 25 71 l 1,15,-1
 204 250 l 1,16,-1
 25 429 l 1,17,-1
 25 500 l 1,0,-1
EndSplineSet
Validated: 1
EndChar

StartChar: y
Encoding: 121 121 25
Width: 512
Flags: W
LayerCount: 2
Fore
SplineSet
204 50 m 1,0,-1
 25 229 l 1,1,-1
 25 500 l 1,2,-1
 75 550 l 1,3,-1
 125 500 l 1,4,-1
 125 271 l 1,5,-1
 275 121 l 1,6,-1
 425 271 l 1,7,-1
 425 500 l 1,8,-1
 525 500 l 1,9,-1
 525 229 l 1,10,-1
 96 -200 l 1,11,-1
 25 -198 l 1,12,-1
 25 -127 l 1,13,-1
 204 50 l 1,0,-1
EndSplineSet
Validated: 1
EndChar

StartChar: z
Encoding: 122 122 26
Width: 512
Flags: W
LayerCount: 2
Fore
SplineSet
75 500 m 1,0,-1
 525 500 l 1,1,-1
 525 429 l 1,2,-1
 196 100 l 1,3,-1
 425 100 l 1,4,-1
 425 200 l 1,5,-1
 575 50 l 1,6,-1
 425 -100 l 1,7,-1
 425 0 l 1,8,-1
 25 0 l 1,9,-1
 25 71 l 1,10,-1
 354 400 l 1,11,-1
 75 400 l 1,12,-1
 25 450 l 1,13,-1
 75 500 l 1,0,-1
EndSplineSet
Validated: 1
EndChar

StartChar: agrave
Encoding: 224 224 27
Width: 512
Flags: W
LayerCount: 2
Fore
SplineSet
184 0 m 0,0,1
 105 0 105 0 66 41 c 0,2,3
 47 62 47 62 40 88 c 128,-1,4
 33 114 33 114 32 143 c 0,5,6
 32 164 32 164 39.5 182.5 c 128,-1,7
 47 201 47 201 59 216 c 0,8,9
 84 248 84 248 117 274 c 0,10,11
 142 294 142 294 167 310.5 c 128,-1,12
 192 327 192 327 213 340 c 1,13,14
 197 370 197 370 175 400 c 0,15,16
 159 422 159 422 143.5 434.5 c 128,-1,17
 128 447 128 447 123 448 c 0,18,19
 111 450 111 450 103 460 c 128,-1,20
 95 470 95 470 96 482 c 128,-1,21
 97 494 97 494 106 503 c 128,-1,22
 115 512 115 512 127 512 c 0,23,24
 130 512 130 512 133 512 c 0,25,26
 165 505 165 505 187 484.5 c 128,-1,27
 209 464 209 464 227 438 c 0,28,29
 242 417 242 417 257.5 391 c 128,-1,30
 273 365 273 365 287 338 c 0,31,32
 308 297 308 297 345.5 228.5 c 128,-1,33
 383 160 383 160 405 118 c 1,34,35
 422 83 422 83 433 72 c 1,36,37
 437 66 437 66 439.5 65 c 128,-1,38
 442 64 442 64 448 64 c 0,39,40
 461 64 461 64 470.5 54.5 c 128,-1,41
 480 45 480 45 480 32 c 128,-1,42
 480 19 480 19 470.5 9.5 c 128,-1,43
 461 0 461 0 448 0 c 0,44,45
 430 0 430 0 413.5 8 c 128,-1,46
 397 16 397 16 385 28 c 1,47,48
 365 51 365 51 350 85 c 1,49,50
 333 65 333 65 310 46 c 0,51,52
 285 26 285 26 253 13 c 128,-1,53
 221 0 221 0 184 0 c 0,0,1
184 64 m 0,54,55
 208 64 208 64 229.5 73 c 128,-1,56
 251 82 251 82 270 97 c 0,57,58
 285 109 285 109 297 122 c 128,-1,59
 309 135 309 135 317 147 c 1,60,-1
 243 283 l 1,61,62
 223 271 223 271 200.5 256 c 128,-1,63
 178 241 178 241 157 224 c 0,64,65
 127 200 127 200 111 178 c 128,-1,66
 95 156 95 156 96 145 c 0,67,68
 98 99 98 99 113 84 c 0,69,70
 120 76 120 76 136.5 70 c 128,-1,71
 153 64 153 64 184 64 c 0,54,55
EndSplineSet
Validated: 33
EndChar

StartChar: aacute
Encoding: 225 225 28
Width: 512
Flags: W
LayerCount: 2
Fore
SplineSet
184 0 m 0,0,1
 105 0 105 0 66 41 c 0,2,3
 47 62 47 62 40 88 c 128,-1,4
 33 114 33 114 32 143 c 0,5,6
 32 164 32 164 39.5 182.5 c 128,-1,7
 47 201 47 201 59 216 c 0,8,9
 84 248 84 248 117 274 c 0,10,11
 142 294 142 294 167 310.5 c 128,-1,12
 192 327 192 327 213 340 c 1,13,14
 197 370 197 370 175 400 c 0,15,16
 159 422 159 422 143.5 434.5 c 128,-1,17
 128 447 128 447 123 448 c 0,18,19
 111 450 111 450 103 460 c 128,-1,20
 95 470 95 470 96 482 c 128,-1,21
 97 494 97 494 106 503 c 128,-1,22
 115 512 115 512 127 512 c 0,23,24
 130 512 130 512 133 512 c 0,25,26
 165 505 165 505 187 484.5 c 128,-1,27
 209 464 209 464 227 438 c 0,28,29
 242 417 242 417 257.5 391 c 128,-1,30
 273 365 273 365 287 338 c 0,31,32
 308 297 308 297 345.5 228.5 c 128,-1,33
 383 160 383 160 405 118 c 1,34,35
 422 83 422 83 433 72 c 1,36,37
 437 66 437 66 439.5 65 c 128,-1,38
 442 64 442 64 448 64 c 0,39,40
 461 64 461 64 470.5 54.5 c 128,-1,41
 480 45 480 45 480 32 c 128,-1,42
 480 19 480 19 470.5 9.5 c 128,-1,43
 461 0 461 0 448 0 c 0,44,45
 430 0 430 0 413.5 8 c 128,-1,46
 397 16 397 16 385 28 c 1,47,48
 365 51 365 51 350 85 c 1,49,50
 333 65 333 65 310 46 c 0,51,52
 285 26 285 26 253 13 c 128,-1,53
 221 0 221 0 184 0 c 0,0,1
184 64 m 0,54,55
 208 64 208 64 229.5 73 c 128,-1,56
 251 82 251 82 270 97 c 0,57,58
 285 109 285 109 297 122 c 128,-1,59
 309 135 309 135 317 147 c 1,60,-1
 243 283 l 1,61,62
 223 271 223 271 200.5 256 c 128,-1,63
 178 241 178 241 157 224 c 0,64,65
 127 200 127 200 111 178 c 128,-1,66
 95 156 95 156 96 145 c 0,67,68
 98 99 98 99 113 84 c 0,69,70
 120 76 120 76 136.5 70 c 128,-1,71
 153 64 153 64 184 64 c 0,54,55
EndSplineSet
Validated: 33
EndChar

StartChar: acircumflex
Encoding: 226 226 29
Width: 512
Flags: W
LayerCount: 2
Fore
SplineSet
184 0 m 0,0,1
 105 0 105 0 66 41 c 0,2,3
 47 62 47 62 40 88 c 128,-1,4
 33 114 33 114 32 143 c 0,5,6
 32 164 32 164 39.5 182.5 c 128,-1,7
 47 201 47 201 59 216 c 0,8,9
 84 248 84 248 117 274 c 0,10,11
 142 294 142 294 167 310.5 c 128,-1,12
 192 327 192 327 213 340 c 1,13,14
 197 370 197 370 175 400 c 0,15,16
 159 422 159 422 143.5 434.5 c 128,-1,17
 128 447 128 447 123 448 c 0,18,19
 111 450 111 450 103 460 c 128,-1,20
 95 470 95 470 96 482 c 128,-1,21
 97 494 97 494 106 503 c 128,-1,22
 115 512 115 512 127 512 c 0,23,24
 130 512 130 512 133 512 c 0,25,26
 165 505 165 505 187 484.5 c 128,-1,27
 209 464 209 464 227 438 c 0,28,29
 242 417 242 417 257.5 391 c 128,-1,30
 273 365 273 365 287 338 c 0,31,32
 308 297 308 297 345.5 228.5 c 128,-1,33
 383 160 383 160 405 118 c 1,34,35
 422 83 422 83 433 72 c 1,36,37
 437 66 437 66 439.5 65 c 128,-1,38
 442 64 442 64 448 64 c 0,39,40
 461 64 461 64 470.5 54.5 c 128,-1,41
 480 45 480 45 480 32 c 128,-1,42
 480 19 480 19 470.5 9.5 c 128,-1,43
 461 0 461 0 448 0 c 0,44,45
 430 0 430 0 413.5 8 c 128,-1,46
 397 16 397 16 385 28 c 1,47,48
 365 51 365 51 350 85 c 1,49,50
 333 65 333 65 310 46 c 0,51,52
 285 26 285 26 253 13 c 128,-1,53
 221 0 221 0 184 0 c 0,0,1
184 64 m 0,54,55
 208 64 208 64 229.5 73 c 128,-1,56
 251 82 251 82 270 97 c 0,57,58
 285 109 285 109 297 122 c 128,-1,59
 309 135 309 135 317 147 c 1,60,-1
 243 283 l 1,61,62
 223 271 223 271 200.5 256 c 128,-1,63
 178 241 178 241 157 224 c 0,64,65
 127 200 127 200 111 178 c 128,-1,66
 95 156 95 156 96 145 c 0,67,68
 98 99 98 99 113 84 c 0,69,70
 120 76 120 76 136.5 70 c 128,-1,71
 153 64 153 64 184 64 c 0,54,55
EndSplineSet
Validated: 33
EndChar

StartChar: atilde
Encoding: 227 227 30
Width: 512
Flags: W
LayerCount: 2
Fore
SplineSet
184 0 m 0,0,1
 105 0 105 0 66 41 c 0,2,3
 47 62 47 62 40 88 c 128,-1,4
 33 114 33 114 32 143 c 0,5,6
 32 164 32 164 39.5 182.5 c 128,-1,7
 47 201 47 201 59 216 c 0,8,9
 84 248 84 248 117 274 c 0,10,11
 142 294 142 294 167 310.5 c 128,-1,12
 192 327 192 327 213 340 c 1,13,14
 197 370 197 370 175 400 c 0,15,16
 159 422 159 422 143.5 434.5 c 128,-1,17
 128 447 128 447 123 448 c 0,18,19
 111 450 111 450 103 460 c 128,-1,20
 95 470 95 470 96 482 c 128,-1,21
 97 494 97 494 106 503 c 128,-1,22
 115 512 115 512 127 512 c 0,23,24
 130 512 130 512 133 512 c 0,25,26
 165 505 165 505 187 484.5 c 128,-1,27
 209 464 209 464 227 438 c 0,28,29
 242 417 242 417 257.5 391 c 128,-1,30
 273 365 273 365 287 338 c 0,31,32
 308 297 308 297 345.5 228.5 c 128,-1,33
 383 160 383 160 405 118 c 1,34,35
 422 83 422 83 433 72 c 1,36,37
 437 66 437 66 439.5 65 c 128,-1,38
 442 64 442 64 448 64 c 0,39,40
 461 64 461 64 470.5 54.5 c 128,-1,41
 480 45 480 45 480 32 c 128,-1,42
 480 19 480 19 470.5 9.5 c 128,-1,43
 461 0 461 0 448 0 c 0,44,45
 430 0 430 0 413.5 8 c 128,-1,46
 397 16 397 16 385 28 c 1,47,48
 365 51 365 51 350 85 c 1,49,50
 333 65 333 65 310 46 c 0,51,52
 285 26 285 26 253 13 c 128,-1,53
 221 0 221 0 184 0 c 0,0,1
184 64 m 0,54,55
 208 64 208 64 229.5 73 c 128,-1,56
 251 82 251 82 270 97 c 0,57,58
 285 109 285 109 297 122 c 128,-1,59
 309 135 309 135 317 147 c 1,60,-1
 243 283 l 1,61,62
 223 271 223 271 200.5 256 c 128,-1,63
 178 241 178 241 157 224 c 0,64,65
 127 200 127 200 111 178 c 128,-1,66
 95 156 95 156 96 145 c 0,67,68
 98 99 98 99 113 84 c 0,69,70
 120 76 120 76 136.5 70 c 128,-1,71
 153 64 153 64 184 64 c 0,54,55
EndSplineSet
Validated: 33
EndChar

StartChar: adieresis
Encoding: 228 228 31
Width: 512
Flags: W
LayerCount: 2
Fore
SplineSet
184 0 m 0,0,1
 105 0 105 0 66 41 c 0,2,3
 47 62 47 62 40 88 c 128,-1,4
 33 114 33 114 32 143 c 0,5,6
 32 164 32 164 39.5 182.5 c 128,-1,7
 47 201 47 201 59 216 c 0,8,9
 84 248 84 248 117 274 c 0,10,11
 142 294 142 294 167 310.5 c 128,-1,12
 192 327 192 327 213 340 c 1,13,14
 197 370 197 370 175 400 c 0,15,16
 159 422 159 422 143.5 434.5 c 128,-1,17
 128 447 128 447 123 448 c 0,18,19
 111 450 111 450 103 460 c 128,-1,20
 95 470 95 470 96 482 c 128,-1,21
 97 494 97 494 106 503 c 128,-1,22
 115 512 115 512 127 512 c 0,23,24
 130 512 130 512 133 512 c 0,25,26
 165 505 165 505 187 484.5 c 128,-1,27
 209 464 209 464 227 438 c 0,28,29
 242 417 242 417 257.5 391 c 128,-1,30
 273 365 273 365 287 338 c 0,31,32
 308 297 308 297 345.5 228.5 c 128,-1,33
 383 160 383 160 405 118 c 1,34,35
 422 83 422 83 433 72 c 1,36,37
 437 66 437 66 439.5 65 c 128,-1,38
 442 64 442 64 448 64 c 0,39,40
 461 64 461 64 470.5 54.5 c 128,-1,41
 480 45 480 45 480 32 c 128,-1,42
 480 19 480 19 470.5 9.5 c 128,-1,43
 461 0 461 0 448 0 c 0,44,45
 430 0 430 0 413.5 8 c 128,-1,46
 397 16 397 16 385 28 c 1,47,48
 365 51 365 51 350 85 c 1,49,50
 333 65 333 65 310 46 c 0,51,52
 285 26 285 26 253 13 c 128,-1,53
 221 0 221 0 184 0 c 0,0,1
184 64 m 0,54,55
 208 64 208 64 229.5 73 c 128,-1,56
 251 82 251 82 270 97 c 0,57,58
 285 109 285 109 297 122 c 128,-1,59
 309 135 309 135 317 147 c 1,60,-1
 243 283 l 1,61,62
 223 271 223 271 200.5 256 c 128,-1,63
 178 241 178 241 157 224 c 0,64,65
 127 200 127 200 111 178 c 128,-1,66
 95 156 95 156 96 145 c 0,67,68
 98 99 98 99 113 84 c 0,69,70
 120 76 120 76 136.5 70 c 128,-1,71
 153 64 153 64 184 64 c 0,54,55
EndSplineSet
Validated: 33
EndChar

StartChar: aring
Encoding: 229 229 32
Width: 512
Flags: W
LayerCount: 2
Fore
SplineSet
184 0 m 0,0,1
 105 0 105 0 66 41 c 0,2,3
 47 62 47 62 40 88 c 128,-1,4
 33 114 33 114 32 143 c 0,5,6
 32 164 32 164 39.5 182.5 c 128,-1,7
 47 201 47 201 59 216 c 0,8,9
 84 248 84 248 117 274 c 0,10,11
 142 294 142 294 167 310.5 c 128,-1,12
 192 327 192 327 213 340 c 1,13,14
 197 370 197 370 175 400 c 0,15,16
 159 422 159 422 143.5 434.5 c 128,-1,17
 128 447 128 447 123 448 c 0,18,19
 111 450 111 450 103 460 c 128,-1,20
 95 470 95 470 96 482 c 128,-1,21
 97 494 97 494 106 503 c 128,-1,22
 115 512 115 512 127 512 c 0,23,24
 130 512 130 512 133 512 c 0,25,26
 165 505 165 505 187 484.5 c 128,-1,27
 209 464 209 464 227 438 c 0,28,29
 242 417 242 417 257.5 391 c 128,-1,30
 273 365 273 365 287 338 c 0,31,32
 308 297 308 297 345.5 228.5 c 128,-1,33
 383 160 383 160 405 118 c 1,34,35
 422 83 422 83 433 72 c 1,36,37
 437 66 437 66 439.5 65 c 128,-1,38
 442 64 442 64 448 64 c 0,39,40
 461 64 461 64 470.5 54.5 c 128,-1,41
 480 45 480 45 480 32 c 128,-1,42
 480 19 480 19 470.5 9.5 c 128,-1,43
 461 0 461 0 448 0 c 0,44,45
 430 0 430 0 413.5 8 c 128,-1,46
 397 16 397 16 385 28 c 1,47,48
 365 51 365 51 350 85 c 1,49,50
 333 65 333 65 310 46 c 0,51,52
 285 26 285 26 253 13 c 128,-1,53
 221 0 221 0 184 0 c 0,0,1
184 64 m 0,54,55
 208 64 208 64 229.5 73 c 128,-1,56
 251 82 251 82 270 97 c 0,57,58
 285 109 285 109 297 122 c 128,-1,59
 309 135 309 135 317 147 c 1,60,-1
 243 283 l 1,61,62
 223 271 223 271 200.5 256 c 128,-1,63
 178 241 178 241 157 224 c 0,64,65
 127 200 127 200 111 178 c 128,-1,66
 95 156 95 156 96 145 c 0,67,68
 98 99 98 99 113 84 c 0,69,70
 120 76 120 76 136.5 70 c 128,-1,71
 153 64 153 64 184 64 c 0,54,55
EndSplineSet
Validated: 2097185
EndChar

StartChar: aring
Encoding: 230 230 33
Width: 950
Flags: W
LayerCount: 2
Fore
SplineSet
128 0 m 0,0,1
 106 0 106 0 88.5 9 c 128,-1,2
 71 18 71 18 58 32 c 0,3,4
 33 61 33 61 32 96 c 1,5,6
 33 140 33 140 56 178 c 128,-1,7
 79 216 79 216 113 245 c 1,8,9
 138 269 138 269 164 286.5 c 128,-1,10
 190 304 190 304 212 316 c 1,11,12
 182 374 182 374 138.5 414 c 128,-1,13
 95 454 95 454 51 465 c 0,14,15
 42 467 42 467 36.5 474.5 c 128,-1,16
 31 482 31 482 32 491 c 128,-1,17
 33 500 33 500 40 506 c 128,-1,18
 47 512 47 512 56 512 c 1,19,-1
 61 511 l 1,20,21
 125 496 125 496 177 444.5 c 128,-1,22
 229 393 229 393 262 322 c 0,23,24
 273 298 273 298 298 257 c 2,25,-1
 348 174 l 1,26,27
 359 230 359 230 394 283.5 c 128,-1,28
 429 337 429 337 476 384 c 0,29,30
 532 439 532 439 594 475 c 128,-1,31
 656 511 656 511 715 512 c 0,32,33
 725 512 725 512 732 505 c 128,-1,34
 739 498 739 498 739 488 c 128,-1,35
 739 478 739 478 732 471 c 128,-1,36
 725 464 725 464 715 464 c 0,37,38
 675 463 675 463 618.5 432 c 128,-1,39
 562 401 562 401 510 350 c 0,40,41
 484 324 484 324 462.5 296 c 128,-1,42
 441 268 441 268 425 240 c 1,43,44
 477 249 477 249 525 256.5 c 128,-1,45
 573 264 573 264 609 267 c 1,46,-1
 610 267 l 1,47,-1
 613 219 l 1,48,49
 573 215 573 215 516.5 206.5 c 128,-1,50
 460 198 460 198 401 186 c 1,51,52
 392 159 392 159 392 136 c 0,53,54
 391 94 391 94 414 73 c 0,55,56
 425 62 425 62 446.5 55 c 128,-1,57
 468 48 468 48 504 48 c 0,58,59
 573 49 573 49 638.5 67.5 c 128,-1,60
 704 86 704 86 756 117 c 0,61,62
 765 122 765 122 774.5 119.5 c 128,-1,63
 784 117 784 117 789 108.5 c 128,-1,64
 794 100 794 100 791.5 90 c 128,-1,65
 789 80 789 80 780 75 c 0,66,67
 723 42 723 42 651.5 21.5 c 128,-1,68
 580 1 580 1 504 0 c 0,69,70
 484 0 484 0 467 2 c 1,71,72
 462 0 462 0 456 0 c 0,73,74
 433 0 433 0 414 9.5 c 128,-1,75
 395 19 395 19 381 35 c 0,76,77
 358 60 358 60 339 94 c 1,78,-1
 299 69 l 2,79,80
 277 55 277 55 254 42 c 0,81,82
 223 25 223 25 191 12.5 c 128,-1,83
 159 0 159 0 128 0 c 0,0,1
126 32 m 0,84,85
 127 32 127 32 128 32 c 0,86,87
 151 32 151 32 180 42.5 c 128,-1,88
 209 53 209 53 238 70 c 0,89,90
 261 83 261 83 283 96 c 2,91,-1
 323 121 l 1,92,-1
 272 205 l 2,93,94
 245 251 245 251 226 287 c 1,95,96
 206 276 206 276 181.5 259.5 c 128,-1,97
 157 243 157 243 134 222 c 0,98,99
 104 194 104 194 84.5 162 c 128,-1,100
 65 130 65 130 64 96 c 0,101,102
 64 86 64 86 68.5 74.5 c 128,-1,103
 73 63 73 63 82 53 c 0,104,105
 99 34 99 34 126 32 c 0,84,85
EndSplineSet
Validated: 2097185
EndChar

StartChar: ccedilla
Encoding: 231 231 34
Width: 512
Flags: W
LayerCount: 2
Fore
SplineSet
208 0 m 0,0,1
 180 0 180 0 151 10.5 c 128,-1,2
 122 21 122 21 95 42 c 128,-1,3
 68 63 68 63 50.5 95 c 128,-1,4
 33 127 33 127 32 168 c 1,5,6
 33 243 33 243 68.5 304.5 c 128,-1,7
 104 366 104 366 156 411 c 128,-1,8
 208 456 208 456 262.5 482 c 128,-1,9
 317 508 317 508 366 512 c 1,10,-1
 368 512 l 2,11,12
 381 512 381 512 390.5 503 c 128,-1,13
 400 494 400 494 400.5 481 c 128,-1,14
 401 468 401 468 392 458.5 c 128,-1,15
 383 449 383 449 370 448 c 0,16,17
 339 445 339 445 291 423 c 128,-1,18
 243 401 243 401 198 362.5 c 128,-1,19
 153 324 153 324 125 274.5 c 128,-1,20
 97 225 97 225 96 168 c 0,21,22
 96 143 96 143 106.5 124.5 c 128,-1,23
 117 106 117 106 135 92 c 128,-1,24
 153 78 153 78 173 71 c 128,-1,25
 193 64 193 64 208 64 c 0,26,27
 271 64 271 64 331 81 c 128,-1,28
 391 98 391 98 427 128 c 0,29,30
 437 137 437 137 450.5 136.5 c 128,-1,31
 464 136 464 136 473 125.5 c 128,-1,32
 482 115 482 115 480.5 101.5 c 128,-1,33
 479 88 479 88 469 80 c 0,34,35
 418 38 418 38 349 19 c 128,-1,36
 280 0 280 0 208 0 c 0,0,1
EndSplineSet
Validated: 1
EndChar

StartChar: egrave
Encoding: 232 232 35
Width: 512
Flags: W
LayerCount: 2
Fore
SplineSet
208 0 m 0,0,1
 180 0 180 0 151 10.5 c 128,-1,2
 122 21 122 21 95 42 c 128,-1,3
 68 63 68 63 50.5 95 c 128,-1,4
 33 127 33 127 32 168 c 1,5,-1
 32 184 l 1,6,7
 38 254 38 254 72.5 311.5 c 128,-1,8
 107 369 107 369 156 411 c 0,9,10
 208 456 208 456 262.5 482 c 128,-1,11
 317 508 317 508 366 512 c 1,12,-1
 368 512 l 2,13,14
 381 512 381 512 390.5 503 c 128,-1,15
 400 494 400 494 400.5 481 c 128,-1,16
 401 468 401 468 392 458.5 c 128,-1,17
 383 449 383 449 370 448 c 0,18,19
 339 445 339 445 291 423 c 128,-1,20
 243 401 243 401 198 363 c 0,21,22
 163 333 163 333 138 296 c 128,-1,23
 113 259 113 259 102 216 c 1,24,25
 151 226 151 226 200 233 c 128,-1,26
 249 240 249 240 296 240 c 1,27,-1
 296 176 l 1,28,29
 251 176 251 176 201 168.5 c 128,-1,30
 151 161 151 161 98 150 c 1,31,32
 106 114 106 114 135 92 c 0,33,34
 153 78 153 78 173 71 c 128,-1,35
 193 64 193 64 208 64 c 0,36,37
 271 64 271 64 331 81 c 128,-1,38
 391 98 391 98 427 128 c 0,39,40
 437 137 437 137 450.5 136.5 c 128,-1,41
 464 136 464 136 473 125.5 c 128,-1,42
 482 115 482 115 480.5 101.5 c 128,-1,43
 479 88 479 88 469 80 c 0,44,45
 418 38 418 38 349 19 c 128,-1,46
 280 0 280 0 208 0 c 0,0,1
EndSplineSet
Validated: 1
EndChar

StartChar: eacute
Encoding: 233 233 36
Width: 512
Flags: W
LayerCount: 2
Fore
SplineSet
208 0 m 0,0,1
 180 0 180 0 151 10.5 c 128,-1,2
 122 21 122 21 95 42 c 128,-1,3
 68 63 68 63 50.5 95 c 128,-1,4
 33 127 33 127 32 168 c 1,5,-1
 32 184 l 1,6,7
 38 254 38 254 72.5 311.5 c 128,-1,8
 107 369 107 369 156 411 c 0,9,10
 208 456 208 456 262.5 482 c 128,-1,11
 317 508 317 508 366 512 c 1,12,-1
 368 512 l 2,13,14
 381 512 381 512 390.5 503 c 128,-1,15
 400 494 400 494 400.5 481 c 128,-1,16
 401 468 401 468 392 458.5 c 128,-1,17
 383 449 383 449 370 448 c 0,18,19
 339 445 339 445 291 423 c 128,-1,20
 243 401 243 401 198 363 c 0,21,22
 163 333 163 333 138 296 c 128,-1,23
 113 259 113 259 102 216 c 1,24,25
 151 226 151 226 200 233 c 128,-1,26
 249 240 249 240 296 240 c 1,27,-1
 296 176 l 1,28,29
 251 176 251 176 201 168.5 c 128,-1,30
 151 161 151 161 98 150 c 1,31,32
 106 114 106 114 135 92 c 0,33,34
 153 78 153 78 173 71 c 128,-1,35
 193 64 193 64 208 64 c 0,36,37
 271 64 271 64 331 81 c 128,-1,38
 391 98 391 98 427 128 c 0,39,40
 437 137 437 137 450.5 136.5 c 128,-1,41
 464 136 464 136 473 125.5 c 128,-1,42
 482 115 482 115 480.5 101.5 c 128,-1,43
 479 88 479 88 469 80 c 0,44,45
 418 38 418 38 349 19 c 128,-1,46
 280 0 280 0 208 0 c 0,0,1
EndSplineSet
Validated: 1
EndChar

StartChar: ecircumflex
Encoding: 234 234 37
Width: 512
Flags: W
LayerCount: 2
Fore
SplineSet
208 0 m 0,0,1
 180 0 180 0 151 10.5 c 128,-1,2
 122 21 122 21 95 42 c 128,-1,3
 68 63 68 63 50.5 95 c 128,-1,4
 33 127 33 127 32 168 c 1,5,-1
 32 184 l 1,6,7
 38 254 38 254 72.5 311.5 c 128,-1,8
 107 369 107 369 156 411 c 0,9,10
 208 456 208 456 262.5 482 c 128,-1,11
 317 508 317 508 366 512 c 1,12,-1
 368 512 l 2,13,14
 381 512 381 512 390.5 503 c 128,-1,15
 400 494 400 494 400.5 481 c 128,-1,16
 401 468 401 468 392 458.5 c 128,-1,17
 383 449 383 449 370 448 c 0,18,19
 339 445 339 445 291 423 c 128,-1,20
 243 401 243 401 198 363 c 0,21,22
 163 333 163 333 138 296 c 128,-1,23
 113 259 113 259 102 216 c 1,24,25
 151 226 151 226 200 233 c 128,-1,26
 249 240 249 240 296 240 c 1,27,-1
 296 176 l 1,28,29
 251 176 251 176 201 168.5 c 128,-1,30
 151 161 151 161 98 150 c 1,31,32
 106 114 106 114 135 92 c 0,33,34
 153 78 153 78 173 71 c 128,-1,35
 193 64 193 64 208 64 c 0,36,37
 271 64 271 64 331 81 c 128,-1,38
 391 98 391 98 427 128 c 0,39,40
 437 137 437 137 450.5 136.5 c 128,-1,41
 464 136 464 136 473 125.5 c 128,-1,42
 482 115 482 115 480.5 101.5 c 128,-1,43
 479 88 479 88 469 80 c 0,44,45
 418 38 418 38 349 19 c 128,-1,46
 280 0 280 0 208 0 c 0,0,1
EndSplineSet
Validated: 1
EndChar

StartChar: edieresis
Encoding: 235 235 38
Width: 512
Flags: W
LayerCount: 2
Fore
SplineSet
208 0 m 0,0,1
 180 0 180 0 151 10.5 c 128,-1,2
 122 21 122 21 95 42 c 128,-1,3
 68 63 68 63 50.5 95 c 128,-1,4
 33 127 33 127 32 168 c 1,5,-1
 32 184 l 1,6,7
 38 254 38 254 72.5 311.5 c 128,-1,8
 107 369 107 369 156 411 c 0,9,10
 208 456 208 456 262.5 482 c 128,-1,11
 317 508 317 508 366 512 c 1,12,-1
 368 512 l 2,13,14
 381 512 381 512 390.5 503 c 128,-1,15
 400 494 400 494 400.5 481 c 128,-1,16
 401 468 401 468 392 458.5 c 128,-1,17
 383 449 383 449 370 448 c 0,18,19
 339 445 339 445 291 423 c 128,-1,20
 243 401 243 401 198 363 c 0,21,22
 163 333 163 333 138 296 c 128,-1,23
 113 259 113 259 102 216 c 1,24,25
 151 226 151 226 200 233 c 128,-1,26
 249 240 249 240 296 240 c 1,27,-1
 296 176 l 1,28,29
 251 176 251 176 201 168.5 c 128,-1,30
 151 161 151 161 98 150 c 1,31,32
 106 114 106 114 135 92 c 0,33,34
 153 78 153 78 173 71 c 128,-1,35
 193 64 193 64 208 64 c 0,36,37
 271 64 271 64 331 81 c 128,-1,38
 391 98 391 98 427 128 c 0,39,40
 437 137 437 137 450.5 136.5 c 128,-1,41
 464 136 464 136 473 125.5 c 128,-1,42
 482 115 482 115 480.5 101.5 c 128,-1,43
 479 88 479 88 469 80 c 0,44,45
 418 38 418 38 349 19 c 128,-1,46
 280 0 280 0 208 0 c 0,0,1
EndSplineSet
Validated: 1
EndChar

StartChar: igrave
Encoding: 236 236 39
Width: 150
Flags: W
LayerCount: 2
Fore
SplineSet
64 0 m 0,0,1
 51 0 51 0 42 9 c 128,-1,2
 33 18 33 18 32.5 31 c 128,-1,3
 32 44 32 44 40.5 53.5 c 128,-1,4
 49 63 49 63 62 64 c 1,5,6
 62 64 62 64 64.5 66.5 c 128,-1,7
 67 69 67 69 72 76 c 0,8,9
 86 97 86 97 100 150 c 0,10,11
 125 242 125 242 134 425 c 1,12,13
 99 415 99 415 64 416 c 0,14,15
 51 416 51 416 41.5 425.5 c 128,-1,16
 32 435 32 435 32 448 c 128,-1,17
 32 461 32 461 41.5 470.5 c 128,-1,18
 51 480 51 480 64 480 c 0,19,20
 91 480 91 480 112.5 486 c 128,-1,21
 134 492 134 492 145 503 c 0,22,23
 152 509 152 509 162 511 c 128,-1,24
 172 513 172 513 181 509 c 128,-1,25
 190 505 190 505 195 497 c 128,-1,26
 200 489 200 489 200 479 c 0,27,28
 193 250 193 250 162 134 c 0,29,30
 147 76 147 76 127 42 c 0,31,32
 116 25 116 25 100.5 13 c 128,-1,33
 85 1 85 1 64 0 c 0,0,1
176 560 m 0,34,35
 171 560 171 560 168 561 c 1,36,37
 157 558 157 558 147 562.5 c 128,-1,38
 137 567 137 567 132 576.5 c 128,-1,39
 127 586 127 586 128.5 596.5 c 128,-1,40
 130 607 130 607 137 615 c 0,41,42
 143 621 143 621 150.5 625.5 c 128,-1,43
 158 630 158 630 171 630 c 0,44,45
 178 630 178 630 185.5 627 c 128,-1,46
 193 624 193 624 199 618 c 1,47,48
 209 604 209 604 208.5 591.5 c 128,-1,49
 208 579 208 579 198.5 569.5 c 128,-1,50
 189 560 189 560 176 560 c 0,34,35
EndSplineSet
Validated: 33
EndChar

StartChar: iacute
Encoding: 237 237 40
Width: 150
Flags: W
LayerCount: 2
Fore
SplineSet
64 0 m 0,0,1
 51 0 51 0 42 9 c 128,-1,2
 33 18 33 18 32.5 31 c 128,-1,3
 32 44 32 44 40.5 53.5 c 128,-1,4
 49 63 49 63 62 64 c 1,5,6
 62 64 62 64 64.5 66.5 c 128,-1,7
 67 69 67 69 72 76 c 0,8,9
 86 97 86 97 100 150 c 0,10,11
 125 242 125 242 134 425 c 1,12,13
 99 415 99 415 64 416 c 0,14,15
 51 416 51 416 41.5 425.5 c 128,-1,16
 32 435 32 435 32 448 c 128,-1,17
 32 461 32 461 41.5 470.5 c 128,-1,18
 51 480 51 480 64 480 c 0,19,20
 91 480 91 480 112.5 486 c 128,-1,21
 134 492 134 492 145 503 c 0,22,23
 152 509 152 509 162 511 c 128,-1,24
 172 513 172 513 181 509 c 128,-1,25
 190 505 190 505 195 497 c 128,-1,26
 200 489 200 489 200 479 c 0,27,28
 193 250 193 250 162 134 c 0,29,30
 147 76 147 76 127 42 c 0,31,32
 116 25 116 25 100.5 13 c 128,-1,33
 85 1 85 1 64 0 c 0,0,1
176 560 m 0,34,35
 171 560 171 560 168 561 c 1,36,37
 157 558 157 558 147 562.5 c 128,-1,38
 137 567 137 567 132 576.5 c 128,-1,39
 127 586 127 586 128.5 596.5 c 128,-1,40
 130 607 130 607 137 615 c 0,41,42
 143 621 143 621 150.5 625.5 c 128,-1,43
 158 630 158 630 171 630 c 0,44,45
 178 630 178 630 185.5 627 c 128,-1,46
 193 624 193 624 199 618 c 1,47,48
 209 604 209 604 208.5 591.5 c 128,-1,49
 208 579 208 579 198.5 569.5 c 128,-1,50
 189 560 189 560 176 560 c 0,34,35
EndSplineSet
Validated: 33
EndChar

StartChar: icircumflex
Encoding: 238 238 41
Width: 150
Flags: W
LayerCount: 2
Fore
SplineSet
64 0 m 0,0,1
 51 0 51 0 42 9 c 128,-1,2
 33 18 33 18 32.5 31 c 128,-1,3
 32 44 32 44 40.5 53.5 c 128,-1,4
 49 63 49 63 62 64 c 1,5,6
 62 64 62 64 64.5 66.5 c 128,-1,7
 67 69 67 69 72 76 c 0,8,9
 86 97 86 97 100 150 c 0,10,11
 125 242 125 242 134 425 c 1,12,13
 99 415 99 415 64 416 c 0,14,15
 51 416 51 416 41.5 425.5 c 128,-1,16
 32 435 32 435 32 448 c 128,-1,17
 32 461 32 461 41.5 470.5 c 128,-1,18
 51 480 51 480 64 480 c 0,19,20
 91 480 91 480 112.5 486 c 128,-1,21
 134 492 134 492 145 503 c 0,22,23
 152 509 152 509 162 511 c 128,-1,24
 172 513 172 513 181 509 c 128,-1,25
 190 505 190 505 195 497 c 128,-1,26
 200 489 200 489 200 479 c 0,27,28
 193 250 193 250 162 134 c 0,29,30
 147 76 147 76 127 42 c 0,31,32
 116 25 116 25 100.5 13 c 128,-1,33
 85 1 85 1 64 0 c 0,0,1
176 560 m 0,34,35
 171 560 171 560 168 561 c 1,36,37
 157 558 157 558 147 562.5 c 128,-1,38
 137 567 137 567 132 576.5 c 128,-1,39
 127 586 127 586 128.5 596.5 c 128,-1,40
 130 607 130 607 137 615 c 0,41,42
 143 621 143 621 150.5 625.5 c 128,-1,43
 158 630 158 630 171 630 c 0,44,45
 178 630 178 630 185.5 627 c 128,-1,46
 193 624 193 624 199 618 c 1,47,48
 209 604 209 604 208.5 591.5 c 128,-1,49
 208 579 208 579 198.5 569.5 c 128,-1,50
 189 560 189 560 176 560 c 0,34,35
EndSplineSet
Validated: 33
EndChar

StartChar: idieresis
Encoding: 239 239 42
Width: 150
Flags: W
LayerCount: 2
Fore
SplineSet
64 0 m 0,0,1
 51 0 51 0 42 9 c 128,-1,2
 33 18 33 18 32.5 31 c 128,-1,3
 32 44 32 44 40.5 53.5 c 128,-1,4
 49 63 49 63 62 64 c 1,5,6
 62 64 62 64 64.5 66.5 c 128,-1,7
 67 69 67 69 72 76 c 0,8,9
 86 97 86 97 100 150 c 0,10,11
 125 242 125 242 134 425 c 1,12,13
 99 415 99 415 64 416 c 0,14,15
 51 416 51 416 41.5 425.5 c 128,-1,16
 32 435 32 435 32 448 c 128,-1,17
 32 461 32 461 41.5 470.5 c 128,-1,18
 51 480 51 480 64 480 c 0,19,20
 91 480 91 480 112.5 486 c 128,-1,21
 134 492 134 492 145 503 c 0,22,23
 152 509 152 509 162 511 c 128,-1,24
 172 513 172 513 181 509 c 128,-1,25
 190 505 190 505 195 497 c 128,-1,26
 200 489 200 489 200 479 c 0,27,28
 193 250 193 250 162 134 c 0,29,30
 147 76 147 76 127 42 c 0,31,32
 116 25 116 25 100.5 13 c 128,-1,33
 85 1 85 1 64 0 c 0,0,1
176 560 m 0,34,35
 171 560 171 560 168 561 c 1,36,37
 157 558 157 558 147 562.5 c 128,-1,38
 137 567 137 567 132 576.5 c 128,-1,39
 127 586 127 586 128.5 596.5 c 128,-1,40
 130 607 130 607 137 615 c 0,41,42
 143 621 143 621 150.5 625.5 c 128,-1,43
 158 630 158 630 171 630 c 0,44,45
 178 630 178 630 185.5 627 c 128,-1,46
 193 624 193 624 199 618 c 1,47,48
 209 604 209 604 208.5 591.5 c 128,-1,49
 208 579 208 579 198.5 569.5 c 128,-1,50
 189 560 189 560 176 560 c 0,34,35
EndSplineSet
Validated: 33
EndChar

StartChar: eth
Encoding: 240 240 43
Width: 512
Flags: W
LayerCount: 2
Fore
SplineSet
200 0 m 1,0,1
 122 3 122 3 77.5 48.5 c 128,-1,2
 33 94 33 94 32 152 c 1,3,4
 35 310 35 310 101 400.5 c 128,-1,5
 167 491 167 491 265 511 c 0,6,7
 278 514 278 514 289.5 507 c 128,-1,8
 301 500 301 500 304 487 c 128,-1,9
 307 474 307 474 299.5 462.5 c 128,-1,10
 292 451 292 451 279 449 c 0,11,12
 204 434 204 434 151 363.5 c 128,-1,13
 98 293 98 293 96 152 c 0,14,15
 96 122 96 122 121 94 c 128,-1,16
 146 66 146 66 200 64 c 1,17,18
 297 67 297 67 355.5 125 c 128,-1,19
 414 183 414 183 416 256 c 1,20,21
 415 302 415 302 395.5 346.5 c 128,-1,22
 376 391 376 391 349 430 c 2,23,-1
 300 502 l 2,24,25
 289 517 289 517 280.5 532 c 128,-1,26
 272 547 272 547 272 568 c 2,27,-1
 272 606 l 1,28,29
 235 611 235 611 203 616 c 0,30,31
 190 619 190 619 182 629.5 c 128,-1,32
 174 640 174 640 176 653 c 128,-1,33
 178 666 178 666 189 674 c 128,-1,34
 200 682 200 682 213 680 c 0,35,36
 243 675 243 675 279 670 c 1,37,38
 288 711 288 711 318 755 c 0,39,40
 326 766 326 766 339 768 c 128,-1,41
 352 770 352 770 363 762.5 c 128,-1,42
 374 755 374 755 376 741.5 c 128,-1,43
 378 728 378 728 370 717 c 0,44,45
 348 687 348 687 342 661 c 1,46,-1
 381 656 l 2,47,48
 393 654 393 654 401 644.5 c 128,-1,49
 409 635 409 635 408.5 622.5 c 128,-1,50
 408 610 408 610 399 601 c 1,51,52
 386 590 386 590 371 592 c 2,53,-1
 336 597 l 1,54,-1
 336 568 l 2,55,56
 336 570 336 570 340 561 c 128,-1,57
 344 552 344 552 353 537 c 1,58,-1
 403 466 l 2,59,60
 432 424 432 424 455.5 371 c 128,-1,61
 479 318 479 318 480 256 c 1,62,63
 478 154 478 154 400.5 79 c 128,-1,64
 323 4 323 4 200 0 c 1,0,1
EndSplineSet
Validated: 1
EndChar

StartChar: ntilde
Encoding: 241 241 44
Width: 512
Flags: W
LayerCount: 2
Fore
SplineSet
25 0 m 1,0,-1
 25 500 l 1,1,-1
 75 550 l 1,2,-1
 125 500 l 1,3,-1
 125 450 l 1,4,5
 192 500 192 500 275 500 c 1,6,7
 381 497 381 497 451.5 426.5 c 128,-1,8
 522 356 522 356 525 250 c 1,9,-1
 525 0 l 1,10,-1
 425 0 l 1,11,-1
 425 250 l 1,12,13
 423 314 423 314 381 356 c 128,-1,14
 339 398 339 398 275 400 c 1,15,16
 211 398 211 398 169 356 c 128,-1,17
 127 314 127 314 125 250 c 1,18,-1
 125 0 l 1,19,-1
 25 0 l 1,0,-1
134 660 m 1,20,21
 173 697 173 697 222 697 c 128,-1,22
 271 697 271 697 310 660 c 0,23,24
 318 653 318 653 328 653 c 128,-1,25
 338 653 338 653 346 660 c 1,26,-1
 416 660 l 1,27,-1
 416 590 l 1,28,29
 377 553 377 553 328 553 c 128,-1,30
 279 553 279 553 240 590 c 0,31,32
 232 598 232 598 222 598 c 128,-1,33
 212 598 212 598 204 590 c 1,34,-1
 134 660 l 1,20,21
EndSplineSet
Validated: 1
EndChar

StartChar: ograve
Encoding: 242 242 45
Width: 512
Flags: W
LayerCount: 2
Fore
SplineSet
275 500 m 1,0,1
 381 497 381 497 451.5 426.5 c 128,-1,2
 522 356 522 356 525 250 c 1,3,4
 522 144 522 144 451.5 73.5 c 128,-1,5
 381 3 381 3 275 0 c 1,6,7
 169 3 169 3 98.5 73.5 c 128,-1,8
 28 144 28 144 25 250 c 1,9,10
 28 356 28 356 98.5 426.5 c 128,-1,11
 169 497 169 497 275 500 c 1,0,1
275 400 m 1,12,13
 211 398 211 398 169 356 c 128,-1,14
 127 314 127 314 125 250 c 1,15,16
 127 186 127 186 169 144 c 128,-1,17
 211 102 211 102 275 100 c 1,18,19
 339 102 339 102 381 144 c 128,-1,20
 423 186 423 186 425 250 c 1,21,22
 423 314 423 314 381 356 c 128,-1,23
 339 398 339 398 275 400 c 1,12,13
240 731 m 1,24,-1
 346 625 l 1,25,-1
 346 554 l 1,26,-1
 275 554 l 1,27,-1
 169 660 l 1,28,-1
 240 731 l 1,24,-1
EndSplineSet
Validated: 1
EndChar

StartChar: oacute
Encoding: 243 243 46
Width: 512
Flags: W
LayerCount: 2
Fore
SplineSet
275 500 m 1,0,1
 381 497 381 497 451.5 426.5 c 128,-1,2
 522 356 522 356 525 250 c 1,3,4
 522 144 522 144 451.5 73.5 c 128,-1,5
 381 3 381 3 275 0 c 1,6,7
 169 3 169 3 98.5 73.5 c 128,-1,8
 28 144 28 144 25 250 c 1,9,10
 28 356 28 356 98.5 426.5 c 128,-1,11
 169 497 169 497 275 500 c 1,0,1
275 400 m 1,12,13
 211 398 211 398 169 356 c 128,-1,14
 127 314 127 314 125 250 c 1,15,16
 127 186 127 186 169 144 c 128,-1,17
 211 102 211 102 275 100 c 1,18,19
 339 102 339 102 381 144 c 128,-1,20
 423 186 423 186 425 250 c 1,21,22
 423 314 423 314 381 356 c 128,-1,23
 339 398 339 398 275 400 c 1,12,13
194 615 m 1,24,-1
 300 721 l 1,25,-1
 371 721 l 1,26,-1
 371 650 l 1,27,-1
 265 544 l 1,28,-1
 194 615 l 1,24,-1
EndSplineSet
Validated: 1
EndChar

StartChar: ocircumflex
Encoding: 244 244 47
Width: 512
Flags: W
LayerCount: 2
Fore
SplineSet
275 500 m 1,0,1
 381 497 381 497 451.5 426.5 c 128,-1,2
 522 356 522 356 525 250 c 1,3,4
 522 144 522 144 451.5 73.5 c 128,-1,5
 381 3 381 3 275 0 c 1,6,7
 169 3 169 3 98.5 73.5 c 128,-1,8
 28 144 28 144 25 250 c 1,9,10
 28 356 28 356 98.5 426.5 c 128,-1,11
 169 497 169 497 275 500 c 1,0,1
275 400 m 1,12,13
 211 398 211 398 169 356 c 128,-1,14
 127 314 127 314 125 250 c 1,15,16
 127 186 127 186 169 144 c 128,-1,17
 211 102 211 102 275 100 c 1,18,19
 339 102 339 102 381 144 c 128,-1,20
 423 186 423 186 425 250 c 1,21,22
 423 314 423 314 381 356 c 128,-1,23
 339 398 339 398 275 400 c 1,12,13
275 725 m 1,24,-1
 381 619 l 1,25,-1
 381 548 l 1,26,-1
 310 548 l 1,27,-1
 275 583 l 1,28,-1
 240 548 l 1,29,-1
 169 619 l 1,30,-1
 275 725 l 1,24,-1
EndSplineSet
Validated: 1
EndChar

StartChar: otilde
Encoding: 245 245 48
Width: 512
Flags: W
LayerCount: 2
Fore
SplineSet
275 500 m 1,0,1
 381 497 381 497 451.5 426.5 c 128,-1,2
 522 356 522 356 525 250 c 1,3,4
 522 144 522 144 451.5 73.5 c 128,-1,5
 381 3 381 3 275 0 c 1,6,7
 169 3 169 3 98.5 73.5 c 128,-1,8
 28 144 28 144 25 250 c 1,9,10
 28 356 28 356 98.5 426.5 c 128,-1,11
 169 497 169 497 275 500 c 1,0,1
275 400 m 1,12,13
 211 398 211 398 169 356 c 128,-1,14
 127 314 127 314 125 250 c 1,15,16
 127 186 127 186 169 144 c 128,-1,17
 211 102 211 102 275 100 c 1,18,19
 339 102 339 102 381 144 c 128,-1,20
 423 186 423 186 425 250 c 1,21,22
 423 314 423 314 381 356 c 128,-1,23
 339 398 339 398 275 400 c 1,12,13
134 660 m 1,24,25
 173 697 173 697 222 697 c 128,-1,26
 271 697 271 697 310 660 c 0,27,28
 318 653 318 653 328 653 c 128,-1,29
 338 653 338 653 346 660 c 1,30,-1
 416 660 l 1,31,-1
 416 590 l 1,32,33
 377 553 377 553 328 553 c 128,-1,34
 279 553 279 553 240 590 c 0,35,36
 232 598 232 598 222 598 c 128,-1,37
 212 598 212 598 204 590 c 1,38,-1
 134 660 l 1,24,25
EndSplineSet
Validated: 1
EndChar

StartChar: odieresis
Encoding: 246 246 49
Width: 512
Flags: W
LayerCount: 2
Fore
SplineSet
275 500 m 1,0,1
 381 497 381 497 451.5 426.5 c 128,-1,2
 522 356 522 356 525 250 c 1,3,4
 522 144 522 144 451.5 73.5 c 128,-1,5
 381 3 381 3 275 0 c 1,6,7
 169 3 169 3 98.5 73.5 c 128,-1,8
 28 144 28 144 25 250 c 1,9,10
 28 356 28 356 98.5 426.5 c 128,-1,11
 169 497 169 497 275 500 c 1,0,1
275 400 m 1,12,13
 211 398 211 398 169 356 c 128,-1,14
 127 314 127 314 125 250 c 1,15,16
 127 186 127 186 169 144 c 128,-1,17
 211 102 211 102 275 100 c 1,18,19
 339 102 339 102 381 144 c 128,-1,20
 423 186 423 186 425 250 c 1,21,22
 423 314 423 314 381 356 c 128,-1,23
 339 398 339 398 275 400 c 1,12,13
175 575 m 1,24,-1
 175 675 l 1,25,-1
 225 675 l 1,26,-1
 275 625 l 1,27,-1
 225 575 l 1,28,-1
 175 575 l 1,24,-1
325 575 m 1,29,-1
 325 675 l 1,30,-1
 375 675 l 1,31,-1
 425 625 l 1,32,-1
 375 575 l 1,33,-1
 325 575 l 1,29,-1
EndSplineSet
Validated: 1
EndChar

StartChar: oslash
Encoding: 248 248 50
Width: 512
Flags: W
LayerCount: 2
Fore
SplineSet
275 500 m 1,0,1
 313 500 313 500 348.5 489.5 c 128,-1,2
 384 479 384 479 413 459 c 1,3,-1
 454 500 l 1,4,-1
 525 500 l 1,5,-1
 525 429 l 1,6,-1
 484 388 l 1,7,8
 504 359 504 359 514.5 323.5 c 128,-1,9
 525 288 525 288 525 250 c 1,10,11
 522 144 522 144 451.5 73.5 c 128,-1,12
 381 3 381 3 275 0 c 1,13,14
 237 0 237 0 201.5 10.5 c 128,-1,15
 166 21 166 21 137 41 c 1,16,-1
 96 0 l 1,17,-1
 25 71 l 1,18,-1
 66 112 l 1,19,20
 46 141 46 141 35.5 176.5 c 128,-1,21
 25 212 25 212 25 250 c 1,22,23
 28 356 28 356 98.5 426.5 c 128,-1,24
 169 497 169 497 275 500 c 1,0,1
275 400 m 1,25,26
 211 398 211 398 169 356 c 128,-1,27
 127 314 127 314 125 250 c 1,28,29
 125 215 125 215 139 185 c 1,30,-1
 340 386 l 1,31,32
 310 400 310 400 275 400 c 1,25,26
275 100 m 1,33,34
 339 102 339 102 381 144 c 128,-1,35
 423 186 423 186 425 250 c 1,36,37
 425 285 425 285 411 315 c 1,38,-1
 210 114 l 1,39,40
 240 100 240 100 275 100 c 1,33,34
EndSplineSet
Validated: 1
EndChar

StartChar: ugrave
Encoding: 249 249 51
Width: 512
Flags: W
LayerCount: 2
Fore
SplineSet
25 500 m 1,0,-1
 125 500 l 1,1,-1
 125 250 l 1,2,3
 127 186 127 186 169 144 c 128,-1,4
 211 102 211 102 275 100 c 1,5,6
 339 102 339 102 381 144 c 128,-1,7
 423 186 423 186 425 250 c 1,8,-1
 425 500 l 1,9,-1
 525 500 l 1,10,-1
 525 0 l 1,11,-1
 475 -50 l 1,12,-1
 425 0 l 1,13,-1
 425 50 l 1,14,15
 358 0 358 0 275 0 c 1,16,17
 169 3 169 3 98.5 73.5 c 128,-1,18
 28 144 28 144 25 250 c 1,19,-1
 25 500 l 1,0,-1
240 731 m 1,20,-1
 346 625 l 1,21,-1
 346 554 l 1,22,-1
 275 554 l 1,23,-1
 169 660 l 1,24,-1
 240 731 l 1,20,-1
EndSplineSet
Validated: 1
EndChar

StartChar: uacute
Encoding: 250 250 52
Width: 512
Flags: W
LayerCount: 2
Fore
SplineSet
25 500 m 1,0,-1
 125 500 l 1,1,-1
 125 250 l 1,2,3
 127 186 127 186 169 144 c 128,-1,4
 211 102 211 102 275 100 c 1,5,6
 339 102 339 102 381 144 c 128,-1,7
 423 186 423 186 425 250 c 1,8,-1
 425 500 l 1,9,-1
 525 500 l 1,10,-1
 525 0 l 1,11,-1
 475 -50 l 1,12,-1
 425 0 l 1,13,-1
 425 50 l 1,14,15
 358 0 358 0 275 0 c 1,16,17
 169 3 169 3 98.5 73.5 c 128,-1,18
 28 144 28 144 25 250 c 1,19,-1
 25 500 l 1,0,-1
194 615 m 1,20,-1
 300 721 l 1,21,-1
 371 721 l 1,22,-1
 371 650 l 1,23,-1
 265 544 l 1,24,-1
 194 615 l 1,20,-1
EndSplineSet
Validated: 1
EndChar

StartChar: ucircumflex
Encoding: 251 251 53
Width: 512
Flags: W
LayerCount: 2
Fore
SplineSet
25 500 m 1,0,-1
 125 500 l 1,1,-1
 125 250 l 1,2,3
 127 186 127 186 169 144 c 128,-1,4
 211 102 211 102 275 100 c 1,5,6
 339 102 339 102 381 144 c 128,-1,7
 423 186 423 186 425 250 c 1,8,-1
 425 500 l 1,9,-1
 525 500 l 1,10,-1
 525 0 l 1,11,-1
 475 -50 l 1,12,-1
 425 0 l 1,13,-1
 425 50 l 1,14,15
 358 0 358 0 275 0 c 1,16,17
 169 3 169 3 98.5 73.5 c 128,-1,18
 28 144 28 144 25 250 c 1,19,-1
 25 500 l 1,0,-1
275 725 m 1,20,-1
 381 619 l 1,21,-1
 381 548 l 1,22,-1
 310 548 l 1,23,-1
 275 583 l 1,24,-1
 240 548 l 1,25,-1
 169 619 l 1,26,-1
 275 725 l 1,20,-1
EndSplineSet
Validated: 1
EndChar

StartChar: udieresis
Encoding: 252 252 54
Width: 512
Flags: W
LayerCount: 2
Fore
SplineSet
25 500 m 1,0,-1
 125 500 l 1,1,-1
 125 250 l 1,2,3
 127 186 127 186 169 144 c 128,-1,4
 211 102 211 102 275 100 c 1,5,6
 339 102 339 102 381 144 c 128,-1,7
 423 186 423 186 425 250 c 1,8,-1
 425 500 l 1,9,-1
 525 500 l 1,10,-1
 525 0 l 1,11,-1
 475 -50 l 1,12,-1
 425 0 l 1,13,-1
 425 50 l 1,14,15
 358 0 358 0 275 0 c 1,16,17
 169 3 169 3 98.5 73.5 c 128,-1,18
 28 144 28 144 25 250 c 1,19,-1
 25 500 l 1,0,-1
175 575 m 1,20,-1
 175 675 l 1,21,-1
 225 675 l 1,22,-1
 275 625 l 1,23,-1
 225 575 l 1,24,-1
 175 575 l 1,20,-1
325 575 m 1,25,-1
 325 675 l 1,26,-1
 375 675 l 1,27,-1
 425 625 l 1,28,-1
 375 575 l 1,29,-1
 325 575 l 1,25,-1
EndSplineSet
Validated: 1
EndChar

StartChar: yacute
Encoding: 253 253 55
Width: 512
Flags: W
LayerCount: 2
Fore
SplineSet
204 50 m 1,0,-1
 25 229 l 1,1,-1
 25 500 l 1,2,-1
 75 550 l 1,3,-1
 125 500 l 1,4,-1
 125 271 l 1,5,-1
 275 121 l 1,6,-1
 425 271 l 1,7,-1
 425 500 l 1,8,-1
 525 500 l 1,9,-1
 525 229 l 1,10,-1
 96 -200 l 1,11,-1
 25 -198 l 1,12,-1
 25 -127 l 1,13,-1
 204 50 l 1,0,-1
194 615 m 1,14,-1
 300 721 l 1,15,-1
 371 721 l 1,16,-1
 371 650 l 1,17,-1
 265 544 l 1,18,-1
 194 615 l 1,14,-1
EndSplineSet
Validated: 1
EndChar

StartChar: thorn
Encoding: 254 254 56
Width: 512
Flags: W
LayerCount: 2
Fore
SplineSet
25 -200 m 1,0,-1
 25 700 l 1,1,-1
 75 750 l 1,2,-1
 125 700 l 1,3,-1
 125 450 l 1,4,5
 192 500 192 500 275 500 c 1,6,7
 381 497 381 497 451.5 426.5 c 128,-1,8
 522 356 522 356 525 250 c 1,9,10
 522 144 522 144 451.5 73.5 c 128,-1,11
 381 3 381 3 275 0 c 1,12,13
 192 0 192 0 125 50 c 1,14,-1
 125 -200 l 1,15,-1
 25 -200 l 1,0,-1
125 250 m 1,16,17
 127 186 127 186 169 144 c 128,-1,18
 211 102 211 102 275 100 c 1,19,20
 339 102 339 102 381 144 c 128,-1,21
 423 186 423 186 425 250 c 1,22,23
 423 314 423 314 381 356 c 128,-1,24
 339 398 339 398 275 400 c 1,25,26
 211 398 211 398 169 356 c 128,-1,27
 127 314 127 314 125 250 c 1,16,17
EndSplineSet
Validated: 1
EndChar

StartChar: ydieresis
Encoding: 255 255 57
Width: 512
Flags: W
LayerCount: 2
Fore
SplineSet
204 50 m 1,0,-1
 25 229 l 1,1,-1
 25 500 l 1,2,-1
 75 550 l 1,3,-1
 125 500 l 1,4,-1
 125 271 l 1,5,-1
 275 121 l 1,6,-1
 425 271 l 1,7,-1
 425 500 l 1,8,-1
 525 500 l 1,9,-1
 525 229 l 1,10,-1
 96 -200 l 1,11,-1
 25 -198 l 1,12,-1
 25 -127 l 1,13,-1
 204 50 l 1,0,-1
175 575 m 1,14,-1
 175 675 l 1,15,-1
 225 675 l 1,16,-1
 275 625 l 1,17,-1
 225 575 l 1,18,-1
 175 575 l 1,14,-1
325 575 m 1,19,-1
 325 675 l 1,20,-1
 375 675 l 1,21,-1
 425 625 l 1,22,-1
 375 575 l 1,23,-1
 325 575 l 1,19,-1
EndSplineSet
Validated: 1
EndChar
